<?xml version="1.0" encoding="utf-8"?>
<!-- Generator: Adobe Illustrator 22.1.0, SVG Export Plug-In . SVG Version: 6.00 Build 0)  -->
<svg version="1.1" xmlns="http://www.w3.org/2000/svg" xmlns:xlink="http://www.w3.org/1999/xlink" x="0px" y="0px"
	 viewBox="0 0 1366 768" style="enable-background:new 0 0 1366 768;" xml:space="preserve">
<style type="text/css">
	<!-- .st0{fill:#FF69B4;} -->
	.st1{display:none;}
	.st2{display:inline;}
	.st3{fill:#AEFF14;}

	.st0 {
  animation: pulse 5s infinite;
}

@keyframes pulse {
  0% {
    fill: #FF69B4;
  }
  100% {
    fill: #AEFF14;
  }
}
</style>
<g id="Layer_2">
	<g>
		<g>
			<path class="st0" d="M655.5,212c0,0.3,0,0.7,0,1c0,0.8,0.7,1.5,1.5,1.5c0.8,0,1.5-0.7,1.5-1.5c0-0.3,0-0.7,0-1
				c0-0.8-0.7-1.5-1.5-1.5C656.2,210.5,655.5,211.2,655.5,212L655.5,212z"/>
		</g>
	</g>
	<g>
		<g>
			<path class="st0" d="M659.8,237c-0.6-7.5,5.8-13.5,4.6-21.1c-0.7-4.4-3.4-8.4-8.2-8.2c-1.4,0-2.1,2.1-0.8,2.8
				c14.5,7.6,1.2,28.2,1.8,39.8c0.3,6.2,2.7,12,5.7,17.4c3.3,5.7,7.2,12.2,12,16.8c4.8,4.7,11.5,4.7,17.2,7.5
				c6.6,3.2,11.6,8.4,15,14.8c5,9.3,10.5,23.2,23.8,20.3c0.7-0.1,1.1-0.8,1.1-1.4c0.2-5.4,0.6-11,2.3-16.1c2.3-7,6.8-10.7,13.8-12.8
				c9.9-2.9,17.8-7.8,22.5-17.3c0.9-1.7-1.7-3.2-2.6-1.5c-2.9,5.9-7.4,10.7-13.4,13.5c-5.4,2.6-11.8,2.8-16.5,6.8
				c-7.8,6.5-8.7,18-9,27.4c0.4-0.5,0.7-1,1.1-1.4c-8.8,2-14.2-6.4-17.5-13.1c-2.7-5.3-5.2-10.6-9.5-14.8c-3.8-3.8-8.4-6.7-13.4-8.5
				c-3.5-1.3-7.5-1.5-10.6-3.6c-3.4-2.2-5.7-6-8-9.3c-4.2-5.9-8.3-12.2-10.1-19.2c-2-8,0.5-15.1,2.5-22.8c2.3-8.7,2.6-20.1-6.6-25
				c-0.3,0.9-0.5,1.9-0.8,2.8c6.9-0.2,5.4,9.3,3.9,13.2c-1.7,4.3-3.7,8.3-3.3,13.1C656.9,238.9,659.9,238.9,659.8,237L659.8,237z"/>
		</g>
	</g>
	<g>
		<g>
			<path class="st0" d="M790.5,282c-0.2,5.6-0.4,14.7,4.6,18.5c3.1,2.3,6.5,3.7,9.2,6.5c3.3,3.5,5.4,7.7,6.6,12.3
				c0.5,1.9,3.4,1.1,2.9-0.8c-1.6-6.1-4.8-11.6-9.6-15.7c-2.8-2.4-7.4-3.8-9.1-7.1c-2-3.9-1.8-9.5-1.7-13.7
				C793.5,280.1,790.5,280.1,790.5,282L790.5,282z"/>
		</g>
	</g>
	<g>
		<g>
			<path class="st0" d="M774.5,280c0,1.7,0,3.3,0,5c0,1.9,3,1.9,3,0c0-1.7,0-3.3,0-5C777.5,278.1,774.5,278.1,774.5,280L774.5,280z"
				/>
		</g>
	</g>
	<g>
		<g>
			<path class="st0" d="M738.1,333.4c2.2-13.9,9.3-26.1,20.4-34.8c1.5-1.2-0.6-3.3-2.1-2.1c-11.4,9-18.9,21.8-21.1,36.1
				C734.9,334.4,737.8,335.3,738.1,333.4L738.1,333.4z"/>
		</g>
	</g>
	<g>
		<g>
			<path class="st0" d="M773,286.5c1.9,0,1.9-3,0-3C771.1,283.5,771.1,286.5,773,286.5L773,286.5z"/>
		</g>
	</g>
	<g>
		<g>
			<path class="st0" d="M771.7,284.6c-2.2,7-8,11.9-15.2,13.2c-1.9,0.3-1.1,3.2,0.8,2.9c8.2-1.5,14.8-7.4,17.3-15.3
				C775.2,283.6,772.3,282.8,771.7,284.6L771.7,284.6z"/>
		</g>
	</g>
	<g>
		<g>
			<path class="st0" d="M699.7,206.2c2.7,0.5,7.1,2.4,9.7,0.7c1.4-0.9,1.8-3.1,3.5-4c2.3-1.2,7.7-0.7,10.3-0.7
				c12.8,0.3,25.7,3.2,38.4,5.2c1.3,0.2,2.4-1,1.7-2.2c-6.2-11.4-20.7-10-31.8-11c-7.4-0.7-15.3-2.2-22.7-1.9
				c-1.9,0.1-3.8,0.4-5.4,1.5c-2.2,1.5-3.2,5.1-5.6,5.9c-1.8,0.6-1,3.5,0.8,2.9c4-1.3,4.7-6.2,9.1-7.1c5.4-1.1,12.5,0.8,18,1.2
				c6,0.5,11.9,1.1,17.9,1.6c7.1,0.6,13.6,1.5,17.4,8.4c0.6-0.7,1.1-1.5,1.7-2.2c-12-1.9-24.2-4.4-36.4-5.2
				c-4.6-0.3-10.7-0.8-15.1,1c-1.3,0.5-1.8,1.2-2.7,2c-2.6,2.3-4.3,1.5-7.7,0.9C698.6,202.9,697.8,205.8,699.7,206.2L699.7,206.2z"
				/>
		</g>
	</g>
	<g>
		<g>
			<path class="st0" d="M730.5,336.4c1.1,5.1-2.7,13.6,3.5,16.8c2.8,1.4,5.2,0.1,7.7-1.3c4.6-2.4,8.1-2.7,13.2-2.5
				c5.9,0.3,11.4-0.5,15.1-5.5c4-5.3,4.7-12.4,8.2-17.9c-0.9,0-1.7,0-2.6,0c1.9,4.3,3.7,8.6,5.2,13.1c0.8,2.3,1.3,5.3,2.7,7.3
				c2.4,3.3,5.8,2.3,8.3-0.2c4.8-4.9,8.5-11.4,12.6-16.8c3.9-5.2,9.8-10.8,10.4-17.5c0.2-1.9-2.8-1.9-3,0
				c-0.5,5.3-5.8,10.4-8.9,14.4c-2.9,3.9-5.8,7.7-8.6,11.6c-1.1,1.5-3.1,5.3-4.6,6.1c-4.6,2.4-5.5-4.4-6.3-6.7
				c-1.6-4.4-3.3-8.6-5.2-12.9c-0.5-1.1-2-0.9-2.6,0c-2.4,3.8-3.6,8.1-5.2,12.3c-2.7,7-7,10-14.7,9.7c-5.1-0.2-9.5-0.5-14.2,2
				c-2.1,1.2-2.2,1.6-5,1.1c-3.2-0.6-3.2-1.8-3.2-4.8c0-3.3,0.8-6,0.1-9.3C732.9,333.7,730,334.5,730.5,336.4L730.5,336.4z"/>
		</g>
	</g>
	<g>
		<g>
			<path class="st0" d="M752.6,310.1c2.6-1.5,5.5-2,8.4-1.6c1.9,0.3,2.7-2.6,0.8-2.9c-3.8-0.6-7.4,0-10.8,1.9
				C749.4,308.5,751,311.1,752.6,310.1L752.6,310.1z"/>
		</g>
	</g>
	<g>
		<g>
			<path class="st0" d="M762,308.3c6.2-0.7,12.3-0.5,18.4,0.4c5,0.7,12.9,0.9,17,4c1.5,1.2,3-1.4,1.5-2.6c-4.3-3.3-11.8-3.5-17-4.2
				c-6.6-1-13.3-1.4-19.9-0.6C760.1,305.5,760,308.5,762,308.3L762,308.3z"/>
		</g>
	</g>
	<g>
		<g>
			<path class="st0" d="M751.4,307.8c3.2-0.7,6.3-1.6,8.9-3.6c2.1-1.7,2.9-3.1,5.8-4.2c2.5-1,5.4-1,8.1-1.1
				c4.6-0.1,9.3,0.5,13.7,1.9c3.7,1.2,5.8,2.2,7.6,5.7c1,2,1.6,4.4,2.4,6.5c0.7,1.8,3.6,1,2.9-0.8c-1.3-3.6-2.2-9.3-5.5-11.6
				c-3.7-2.7-9.5-3.7-13.9-4.3c-5.1-0.7-11-0.8-16,0.8c-2.2,0.7-3.6,1.9-5.3,3.3c-2.9,2.5-5.7,3.6-9.4,4.5
				C748.7,305.3,749.5,308.2,751.4,307.8L751.4,307.8z"/>
		</g>
	</g>
	<g>
		<g>
			<path class="st0" d="M748,313.6c6.2,0,10.8,4,15.8,7c4.6,2.7,9.4,3.9,14.7,4.5c6,0.6,11,0.9,16-2.7c3.1-2.2,5.9-4.5,6.1-8.4
				c0.1-1.9-2.9-1.9-3,0c-0.5,6.8-10.7,8.7-15.7,8.4c-5.4-0.4-10.6-1.1-15.4-3.7c-6.1-3.3-11.2-8.2-18.6-8.1
				C746.1,310.6,746.1,313.6,748,313.6L748,313.6z"/>
		</g>
	</g>
	<g>
		<g>
			<path class="st0" d="M784.8,234.9c6.6-2.8,13.8-6.6,21.1-4.9c-0.4-0.5-0.7-1-1.1-1.4c0.1,0.6,0.1,1.3,0.2,1.9
				c0.2,1.9,3.2,1.9,3,0c-0.1-0.6-0.1-1.3-0.2-1.9c-0.1-0.6-0.4-1.3-1.1-1.4c-8.3-2-16,2-23.5,5.2
				C781.6,233.1,783.1,235.7,784.8,234.9L784.8,234.9z"/>
		</g>
	</g>
	<g>
		<g>
			<path class="st0" d="M786,237.1c6.8-1.8,13,5.9,19.7,2.7c5.1-2.5,4-8.6,2.5-13c-0.6-1.8-3.5-1-2.9,0.8c0.7,2.1,1.7,4.7,1.1,6.9
				c-1.2,4.5-6.4,3-9.5,1.8c-4-1.6-7.5-3.1-11.8-2C783.3,234.7,784.1,237.6,786,237.1L786,237.1z"/>
		</g>
	</g>
	<g>
		<g>
			<path class="st0" d="M798,228c0,3.5,0,7,0,10.5c0,1.9,3,1.9,3,0c0-3.5,0-7,0-10.5C801,226.1,798,226.1,798,228L798,228z"/>
		</g>
	</g>
	<g>
		<g>
			<path class="st0" d="M738.6,230.6c-0.5-3-1-6-1.5-9c-0.3-1.9-3.2-1.1-2.9,0.8c0.5,3,1,6,1.5,9
				C736.1,233.3,738.9,232.5,738.6,230.6L738.6,230.6z"/>
		</g>
	</g>
	<g>
		<g>
			<path class="st0" d="M713.2,225.1c2.9,0.5,5.2-0.1,7.8-1.6c4.6-2.7,8.5-5,13.7-2c1.7,1,3.2-1.6,1.5-2.6c-2.9-1.7-6.2-2.4-9.5-1.7
				c-4.4,1-7.9,5.8-12.6,5C712.1,221.9,711.3,224.7,713.2,225.1L713.2,225.1z"/>
		</g>
	</g>
	<g>
		<g>
			<path class="st0" d="M713,228.6c5-0.5,10-0.3,14.9,0.9c3.5,0.9,6.9,2.6,10.6,2.9c4.9,0.3,9.9-3.4,8.2-8.7
				c-0.6-1.8-3.5-1.1-2.9,0.8c-1.5,1.7-3,3.3-4.6,5c-0.9-0.1-1.8-0.3-2.7-0.4c-1-0.2-2-0.6-3.1-1c-2.4-0.8-4.8-1.5-7.3-2
				c-4.4-0.8-8.8-0.9-13.2-0.5C711.1,225.8,711.1,228.8,713,228.6L713,228.6z"/>
		</g>
	</g>
	<g>
		<g>
			<path class="st0" d="M714.5,215.1c-0.1-0.2-0.1,0,0,0.1c0,0.1,0,0.1,0,0c0-0.1,0-0.1,0,0.1c0.1-0.2,0.1,0,0,0
				c-0.2,0.1-0.2,0.1-0.4,0.1c0.8-0.1,1.5-0.6,1.5-1.5c0-0.7-0.7-1.6-1.5-1.5c-0.9,0.1-1.6,0.5-2.1,1.2c-0.4,0.6-0.5,1.5-0.3,2.2
				c0.3,0.8,1,1.3,1.8,1C714.2,216.7,714.8,215.8,714.5,215.1L714.5,215.1z"/>
		</g>
	</g>
	<g>
		<g>
			<path class="st0" d="M715,215.7c11.3-4,23.8-1.9,33,5.8c1.5,1.2,3.6-0.9,2.1-2.1c-10-8.4-23.6-11-35.9-6.6
				C712.4,213.4,713.2,216.3,715,215.7L715,215.7z"/>
		</g>
	</g>
	<g>
		<g>
			<path class="st0" d="M747.6,220.1c-0.4,1.6-0.2,3.2,0.5,4.7c0.3,0.7,1.4,0.9,2.1,0.5c0.8-0.4,0.9-1.3,0.5-2.1
				c-0.3-0.7-0.4-1.6-0.2-2.4C750.9,219,748,218.2,747.6,220.1L747.6,220.1z"/>
		</g>
	</g>
	<g>
		<g>
			<path class="st0" d="M781,225.6c-0.8-3.6,2.7-6.4,4.6-9c1.7-2.2,2.9-4.7,3.9-7.3c0.7-1.8-2.2-2.6-2.9-0.8c-1.5,3.9-4,6.7-6.4,10
				c-1.8,2.4-2.8,4.8-2.2,7.8C778.6,228.2,781.5,227.5,781,225.6L781,225.6z"/>
		</g>
	</g>
	<g>
		<g>
			<path class="st0" d="M776.3,226.9c1.5,4.3,5.1,7.4,7.8,11c3.2,4.4,5.9,9.2,7.9,14.3c2.1,5.2,6.7,14-1.2,16.5
				c-2.6,0.8-4.6,0.7-5.4,3.8c-0.5,1.9,2.4,2.7,2.9,0.8c0.6-2,5.4-1.5,7-2.4c1.3-0.7,2.2-1.9,2.7-3.2c1.4-3.7-0.3-8.3-1.5-11.8
				c-1.6-4.8-3.7-9.5-6.3-13.9c-1.4-2.4-3-4.8-4.7-7c-2.1-2.8-5.2-5.5-6.3-8.8C778.6,224.3,775.7,225.1,776.3,226.9L776.3,226.9z"/>
		</g>
	</g>
	<g>
		<g>
			<path class="st0" d="M778.3,267.2c-1.1,5.1-0.2,11.6,5.6,13.3c5.8,1.6,8.5-3.9,9.5-8.5c0.4-1.9-2.5-2.7-2.9-0.8
				c-0.6,2.9-1.8,7.5-5.8,6.4c-4.2-1.2-4.3-6.1-3.5-9.6C781.6,266.1,778.7,265.3,778.3,267.2L778.3,267.2z"/>
		</g>
	</g>
	<g>
		<g>
			<path class="st0" d="M774.8,269.3c-1,0.7-2.2,1.5-3.4,1.6c-1.1,0.1-2.5-0.5-2-1.8c0.4-1,1.7-1.5,2.7-1.7c0.6-0.2,2.7-0.8,3.1-0.1
				c1,1.6,3.6,0.1,2.6-1.5c-1.3-2.1-3.8-1.8-6-1.4c-2.2,0.5-4.6,1.6-5.3,4c-0.7,2.2,0.4,4.3,2.4,5.2c2.6,1.1,5.2-0.2,7.4-1.6
				C777.9,270.9,776.4,268.3,774.8,269.3L774.8,269.3z"/>
		</g>
	</g>
	<g>
		<g>
			<path class="st0" d="M765.5,277c-2.5-2.2-6.3-3.3-8-6.3c-2.5-4.3-0.4-9.1,1.9-12.9c1-1.6-1.6-3.1-2.6-1.5
				c-2.5,3.9-4.3,8.5-3,13.2c1.4,5.4,5.9,6.2,9.6,9.6C764.8,280.4,766.9,278.3,765.5,277L765.5,277z"/>
		</g>
	</g>
	<g>
		<g>
			<path class="st0" d="M635.4,231.3c-2.9-0.9-4.6-3.9-7-5.7c-1.5-1.2-3.2-2.1-5-2.8c-4.1-1.6-8.5-1.8-12.8-0.8
				c-1.9,0.4-1.1,3.3,0.8,2.9c5.3-1.2,10.7-0.2,15,3c2.9,2.2,4.6,5.2,8.2,6.3C636.5,234.8,637.2,231.9,635.4,231.3L635.4,231.3z"/>
		</g>
	</g>
	<g>
		<g>
			<path class="st0" d="M609.9,222.3c-7.5,3.4-17.3,9.1-15.7,18.9c0.4,2.2,1.5,4.1,2.3,6.2c1.1,2.7,1.5,5.3,2,8.2
				c0.9,5.7,3,10.8,5.6,15.9c4.6,8.9,9.9,20,18.4,25.9c2.5,1.7,5.9,2.9,8.4,0.5c2.4-2.3,1.9-6,1.4-8.9c-0.3-1.9-3.2-1.1-2.9,0.8
				c0.3,1.2,0.4,2.4,0.3,3.6c-2.1,0.3-4.2,0.7-6.3,1c-1.2-0.4-2.6-2.5-3.5-3.5c-2.5-2.8-4.6-5.8-6.6-9c-3.9-6.4-8-13.3-10.3-20.4
				c-1.1-3.2-1.4-6.4-2-9.7c-0.6-3-1.8-5.4-2.9-8.3c-3.7-9.8,5.8-15,13.3-18.5C613.2,224.1,611.7,221.5,609.9,222.3L609.9,222.3z"/>
		</g>
	</g>
	<g>
		<g>
			<path class="st0" d="M631.6,254.1c-0.2,1.3-0.4,2.7-0.6,4c-0.1,0.8,0.2,1.6,1,1.8c0.7,0.2,1.7-0.2,1.8-1c0.2-1.3,0.4-2.7,0.6-4
				c0.1-0.8-0.2-1.6-1-1.8C632.7,252.9,631.7,253.3,631.6,254.1L631.6,254.1z"/>
		</g>
	</g>
	<g>
		<g>
			<path class="st0" d="M637.9,268.1c-0.9-2.5-2.2-4.6-3.9-6.7c-1.2-1.5-3.3,0.6-2.1,2.1c1.3,1.6,2.4,3.4,3.1,5.3
				C635.7,270.7,638.6,269.9,637.9,268.1L637.9,268.1z"/>
		</g>
	</g>
	<g>
		<g>
			<path class="st0" d="M629.3,255.7C629.2,255.9,629.2,255.9,629.3,255.7C629.5,255.7,629.5,255.7,629.3,255.7
				C629.3,255.7,629.4,255.7,629.3,255.7C629.5,255.8,629.5,255.8,629.3,255.7c-0.1-0.1-0.3-0.2-0.3-0.2c-0.4-0.6-0.3-1.4-0.3-2.1
				c0-1.9-3-1.9-3,0c0,1.6,0.1,3.5,1.5,4.5c1.2,1,3.1,1.1,4.3-0.1C632.8,256.5,630.7,254.3,629.3,255.7L629.3,255.7z"/>
		</g>
	</g>
	<g>
		<g>
			<path class="st0" d="M628.4,252c0.1-4.6-2.2-8.1-3.7-12.3c-1.3-3.3-0.9-7.3-4.1-9.6c-4.4-3.2-12.3-2.5-15.2,2.3
				c-1,1.7,1.6,3.2,2.6,1.5c1.6-2.7,5.1-3.1,7.9-2.5c3.8,0.8,4.3,3.1,5,6.3c1.2,4.9,4.6,9,4.5,14.2
				C625.4,253.9,628.4,253.9,628.4,252L628.4,252z"/>
		</g>
	</g>
	<g>
		<g>
			<path class="st0" d="M605.5,233c-1,1-2,2-3,3c-1.4,1.4,0.7,3.5,2.1,2.1c1-1,2-2,3-3C609,233.8,606.9,231.6,605.5,233L605.5,233z"
				/>
		</g>
	</g>
	<g>
		<g>
			<path class="st0" d="M604,252c1.9,0,1.9-3,0-3C602.1,249,602.1,252,604,252L604,252z"/>
		</g>
	</g>
	<g>
		<g>
			<path class="st0" d="M601.5,238.5c0,3.2,0,6.3,0,9.5c0,1.9,3,1.9,3,0c0-3.2,0-6.3,0-9.5C604.5,236.6,601.5,236.6,601.5,238.5
				L601.5,238.5z"/>
		</g>
	</g>
	<g>
		<g>
			<path class="st0" d="M603,250.5c1.9,0,1.9-3,0-3C601.1,247.5,601.1,250.5,603,250.5L603,250.5z"/>
		</g>
	</g>
	<g>
		<g>
			<path class="st0" d="M612,235.5c0.2,1.4-0.1,2.6-0.8,3.7c-1,1.6,1.6,3.1,2.6,1.5c1-1.6,1.4-3.4,1.2-5.3c-0.1-0.8-0.6-1.5-1.5-1.5
				C612.8,234,611.9,234.7,612,235.5L612,235.5z"/>
		</g>
	</g>
	<g>
		<g>
			<path class="st0" d="M610.5,239.3c-4.9,11.7-7.3,24.2,3.3,33.5c1.4,1.3,3.6-0.8,2.1-2.1c-9.8-8.5-7-20-2.5-30.5
				C614.1,238.3,611.2,237.5,610.5,239.3L610.5,239.3z"/>
		</g>
	</g>
	<g>
		<g>
			<path class="st0" d="M623.5,247.9c-2.4,0.1-4.5,2.1-4.4,4.6c0,1.9,3,1.9,3,0c0-0.4,0.1-0.7,0.4-1.1c0.2-0.2,0.2-0.2,0.5-0.4
				c0.2-0.1,0.4-0.1,0.5-0.1C625.4,250.9,625.4,247.9,623.5,247.9L623.5,247.9z"/>
		</g>
	</g>
	<g>
		<g>
			<path class="st0" d="M618,263.5c0-2.5,0-5,0-7.5c0-1.9-3-1.9-3,0c0,2.5,0,5,0,7.5C615,265.4,618,265.4,618,263.5L618,263.5z"/>
		</g>
	</g>
	<g>
		<g>
			<path class="st0" d="M617.3,258.4c0.3-1.6,0.9-3.1,1.6-4.6c0.9-1.7-1.7-3.2-2.6-1.5c-0.9,1.7-1.5,3.4-1.9,5.3
				C614,259.5,616.9,260.3,617.3,258.4L617.3,258.4z"/>
		</g>
	</g>
	<g>
		<g>
			<path class="st0" d="M615.8,267.8c5.2-0.7,10.8-1.3,15.4,1.8c1.6,1.1,3.1-1.5,1.5-2.6c-5.3-3.5-11.7-2.9-17.7-2.1
				C613.1,265.1,614,268,615.8,267.8L615.8,267.8z"/>
		</g>
	</g>
	<g>
		<g>
			<path class="st0" d="M642.3,266.9c0.7-4.3,1.3-8.7,2-13c0.3-1.9-2.6-2.7-2.9-0.8c-0.7,4.3-1.3,8.7-2,13
				C639.1,268,642,268.8,642.3,266.9L642.3,266.9z"/>
		</g>
	</g>
	<g>
		<g>
			<path class="st0" d="M643,255c1.9,0,1.9-3,0-3C641.1,252,641.1,255,643,255L643,255z"/>
		</g>
	</g>
	<g>
		<g>
			<path class="st0" d="M637,234c1.9,0,1.9-3,0-3C635.1,231,635.1,234,637,234L637,234z"/>
		</g>
	</g>
	<g>
		<g>
			<path class="st0" d="M635.5,233.4c3.1,6.7,5.2,13.7,6.3,21c0.3,1.9,3.2,1.1,2.9-0.8c-1.2-7.6-3.4-14.8-6.6-21.7
				C637.3,230.1,634.7,231.6,635.5,233.4L635.5,233.4z"/>
		</g>
	</g>
	<g>
		<g>
			<path class="st0" d="M622.5,220.5c0.5-4.7-1.1-9.9,0.5-14.4c1.6-4.5,5.4-8.7,8.1-12.6c1.1-1.6-1.5-3.1-2.6-1.5
				c-2.8,4.2-6.8,8.5-8.4,13.3c-1.6,4.9-0.1,10.2-0.6,15.2C619.3,222.4,622.3,222.4,622.5,220.5L622.5,220.5z"/>
		</g>
	</g>
	<g>
		<g>
			<path class="st0" d="M638.3,185.8c3.4-6.1,9.6-7.6,14.9-11.4c5.5-3.9,11.8-5.9,17.9-8.7c12.6-5.7,22.2-20.6,37.1-19.5
				c1.9,0.1,1.9-2.9,0-3c-15.8-1.1-25.5,14-38.7,19.9c-3.5,1.6-7.2,2.9-10.7,4.5c-3.4,1.6-6.1,3.7-9.2,5.7c-2.9,1.9-6.2,2.6-8.9,4.8
				c-2.1,1.7-3.7,3.7-5,6.1C634.8,186,637.4,187.5,638.3,185.8L638.3,185.8z"/>
		</g>
	</g>
	<g>
		<g>
			<path class="st0" d="M425,478c0-0.2,0-0.3,0-0.5c0-0.8-0.7-1.5-1.5-1.5c-0.8,0-1.5,0.7-1.5,1.5c0,0.2,0,0.3,0,0.5
				c0,0.8,0.7,1.5,1.5,1.5C424.3,479.5,425,478.8,425,478L425,478z"/>
		</g>
	</g>
	<g>
		<g>
			<path class="st0" d="M424.9,475.9c-0.1-12,9.2-20.3,18.6-26.3c4.5-2.9,9.1-5.5,13.4-8.6c4-2.8,7.6-6.3,11.9-8.5
				c4.5-2.3,9.5-3.3,14.1-5.2c4-1.7,7.9-3.7,11.8-5.7c9.2-4.8,18.6-9.5,29.2-8.9c1.9,0.1,1.9-2.9,0-3c-10.3-0.6-19.6,3.6-28.6,8.2
				c-5.3,2.7-10.6,5.6-16.2,7.6c-5,1.8-10.1,3.1-14.7,6c-4.7,3-8.8,6.8-13.6,9.8c-5,3.2-10.2,6.1-15,9.8
				c-7.9,6.1-14.2,14.5-14.1,24.8C421.9,477.9,424.9,477.9,424.9,475.9L424.9,475.9z"/>
		</g>
	</g>
	<g>
		<g>
			<path class="st0" d="M525,413c3.7-0.2,7.5-0.5,11.1-1.5c3.9-1.2,7.3-3.5,11.3-4.4c3.8-0.9,7.8-0.8,11.5-2.2
				c3.4-1.2,6.3-3.3,9.2-5.3c1.6-1.1,0.1-3.7-1.5-2.6c-2.9,2-5.8,4.2-9.2,5.3c-3.5,1.1-7.2,1.1-10.8,1.9c-3,0.7-5.5,2-8.3,3.2
				c-4.3,1.8-8.6,2.2-13.2,2.5C523.1,410.1,523.1,413.1,525,413L525,413z"/>
		</g>
	</g>
	<g>
		<g>
			<path class="st0" d="M711.5,132.3c-11.4,0.4-22.4,0.4-33.6-1.5c-10.5-1.8-20.8-2.3-31.4-1.1c-1.9,0.2-1.9,3.2,0,3
				c11.8-1.4,22.8-0.2,34.5,1.6c10.1,1.6,20.3,1.3,30.5,0.9C713.4,135.3,713.4,132.3,711.5,132.3L711.5,132.3z"/>
		</g>
	</g>
	<g>
		<g>
			<path class="st0" d="M619.9,158.9c0.7-4.6,1.7-10.5,4.6-14.4c2.6-3.4,6.9-4.3,10.3-6.8c1.5-1.1,0-3.7-1.5-2.6
				c-3.6,2.7-8.4,3.7-11.2,7.5c-3.1,4.3-4.2,10.3-5,15.4C616.7,160,619.6,160.8,619.9,158.9L619.9,158.9z"/>
		</g>
	</g>
	<g>
		<g>
			<path class="st0" d="M714,132.4c1.8-4.9,5.2-8.8,9.7-11.3c1.7-0.9,0.2-3.5-1.5-2.6c-5.2,2.9-9.1,7.4-11.1,13.1
				C710.4,133.4,713.3,134.2,714,132.4L714,132.4z"/>
		</g>
	</g>
	<g>
		<g>
			<path class="st0" d="M723.5,121.5c1.9,0,1.9-3,0-3C721.6,118.5,721.6,121.5,723.5,121.5L723.5,121.5z"/>
		</g>
	</g>
	<g>
		<g>
			<path class="st0" d="M637.7,271.6c-1.9,9.9,3.1,18.4,9.2,25.8c0.5-0.8,1-1.7,1.5-2.5c-5.5-2.1-11.8,2-10.5,8.2
				c1.3,6.5,9.1,7.1,14.4,6.3c1.1-0.2,1.2-1.4,0.9-2.2c-1.7-3.8-6.9-4.2-9.9-1.6c-3.9,3.4-2,9.5,1.1,12.9c3.2,3.5,9.4,6.3,13.8,3.1
				c3.5-2.5,4.1-7.9,0.7-10.6c-0.9-0.8-2.1-0.4-2.5,0.7c-3.3,8.3-4.9,16.8-4.9,25.7c0,1,1,1.7,1.9,1.4c2.9-0.8,4.6-2.5,5.6-5.3
				c0.2-0.6-0.1-1.4-0.7-1.7c-3.3-1.8-6.5-3.5-9.8-5.3c-2.6-1.4-4.8-3.3-5.6-6.5c-0.4-1.4,0.1-3.5-0.1-5c-0.5-4.3-2.4-8-6-10.5
				c-0.7-0.5-2,0-2.2,0.9c-2.5,14.4,4.1,28.9,16.7,36.4c0.7,0.4,1.6,0.2,2.1-0.5c4.5-7.6-5.2-11.1-11-11.6c-0.7,0-1.3,0.5-1.4,1.1
				c-1.2,4.2-1,8.1,0.6,12.2c0.6,1.5,2.9,1.4,2.9-0.4c0-4.8-0.9-9.1-2.9-13.4c-0.5-1-2.1-0.9-2.6,0c-4.7,8.5-2.5,20,5.5,25.8
				c3.4,2.5,6.1,2.4,6.5,7.5c0.2,2.5,0,4.3,1.6,6.4c3.5,4.4,9.6,3.6,14.5,2.7c-0.6-0.5-1.3-1-1.9-1.4c-0.6,9.1,9.5,13.6,16,7.4
				c0.6-0.5,0.6-1.6,0-2.1c-7.9-7.3-16.6-14.8-27.9-14.5c-1.1,0-1.9,1.3-1.3,2.3c2.2,3.4,8.2,9.7,13,7.8c1.8-0.7,2.1-2.5,2.4-4.2
				c0.7-4.1,0.6-8.5,0.6-12.6c0-5.8,0-13.2-5.2-16.9c-3.6-2.6-8.5-2.8-11.7,0.5c-0.4,0.4-0.5,1-0.4,1.5c2.7,8.6,12.3,12.2,16.7,19.9
				c4.7,8.1,6.7,17.3,13.2,24.2c1.3,1.4,3.4-0.7,2.1-2.1c-5.3-5.6-7.5-13-10.8-19.8c-3.1-6.6-7.2-10.6-12.6-15.3
				c-2.1-1.8-8.2-7.5-2.1-7.9c6.4-0.3,7.6,8.2,7.7,12.7c0.1,4.1,0,8.2-0.3,12.3c-0.2,3.4,0.2,6.1-4.1,4c-2.6-1.2-4.5-3.2-6-5.5
				c-0.4,0.8-0.9,1.5-1.3,2.3c10.5-0.2,18.6,6.9,25.8,13.6c0-0.7,0-1.4,0-2.1c-4.7,4.4-11.3,0.8-10.9-5.3c0.1-1-1-1.6-1.9-1.4
				c-2.6,0.5-7.3,1.6-9.6-0.3c-3.3-2.7-2.1-5.8-2.8-9.1c-0.6-3.1-3-4.1-5.6-5.5c-8.1-4.5-11.2-15-6.7-23.1c-0.9,0-1.7,0-2.6,0
				c1.7,3.8,2.5,7.7,2.4,11.9c1-0.1,2-0.3,2.9-0.4c-1.4-3.6-1.6-6.9-0.6-10.6c-0.5,0.4-1,0.7-1.4,1.1c3,0.2,11.7,1.6,8.4,7
				c0.7-0.2,1.4-0.4,2.1-0.5c-11.3-6.8-17.5-20-15.3-33c-0.7,0.3-1.5,0.6-2.2,0.9c3.3,2.3,4.5,6,4.7,9.9c0.1,2.7-0.5,5.3,1.1,7.8
				c1.2,1.9,3.2,2.9,5.1,3.9c3.5,1.9,7.1,3.8,10.6,5.7c-0.2-0.6-0.5-1.1-0.7-1.7c-1.2,1.1-2.3,2.1-3.5,3.2c0.6,0.5,1.3,1,1.9,1.4
				c0-8.7,1.6-16.9,4.8-24.9c-0.8,0.2-1.7,0.4-2.5,0.7c3,2.5,0.5,6.5-2.8,6.8c-2.2,0.2-4.8-1.2-6.4-2.6c-1.5-1.3-4-4.2-3.4-6.4
				c0.6-2.4,4.5-6.7,6.5-2.3c0.3-0.7,0.6-1.5,0.9-2.2c-2.2,0.3-4.8,0.5-6.9-0.3c-6.4-2.4-3-10.7,3-8.5c1.5,0.6,2.3-1.5,1.5-2.5
				c-5.4-6.4-10.1-14.2-8.4-22.9C641,270.6,638.1,269.7,637.7,271.6L637.7,271.6z"/>
		</g>
	</g>
	<g>
		<g>
			<path class="st0" d="M667.2,381.9c6.3,2.9,12.9,4.5,19.8,4.6c1.9,0,1.9-3,0-3c-6.4-0.2-12.5-1.5-18.3-4.2
				C667,378.5,665.5,381.1,667.2,381.9L667.2,381.9z"/>
		</g>
	</g>
	<g>
		<g>
			<path class="st0" d="M688,384.4c-2.6,5.7,2.2,11.9,8.4,10.4c1.9-0.4,1.1-3.3-0.8-2.9c-3.5,0.8-6.5-2.7-5-6
				C691.3,384.1,688.8,382.6,688,384.4L688,384.4z"/>
		</g>
	</g>
	<g>
		<g>
			<path class="st0" d="M691.7,394.7c1.6,3.3,4.2,6.9,8.2,7.3c2.5,0.2,5.3-1.3,5.9-3.9c1.1-4.8-6.7-7.3-7.5-2
				c-0.6,3.5,3.2,6.8,5.3,9c3.3,3.5,7.1,6.8,11.4,9.2c9.9,5.6,19.5,4.3,29.9,1.1c1.8-0.6,1.1-3.5-0.8-2.9c-9.6,3-18.4,4.4-27.6-0.8
				c-3.6-2-6.7-4.7-9.6-7.5c-1.5-1.5-3.1-4.3-4.8-5.4c-2.8,0.5-4.9-0.5-6.3-3c-0.5-0.8-1-1.6-1.4-2.5
				C693.5,391.4,690.9,392.9,691.7,394.7L691.7,394.7z"/>
		</g>
	</g>
	<g>
		<g>
			<path class="st0" d="M745,412.6c-2.2-0.2-4.4-0.6-6.5-1.3c-2.1-0.8-3.6-2.1-5.6-3c-2.6-1.2-4.2,0.8-4.5,3.3
				c-0.9,7.2,6.7,10.4,12.2,12.1c1.9,0.6,2.6-2.3,0.8-2.9c-2.6-0.8-5.5-1.6-7.6-3.4c-1.1-1-4.1-5.5-1.8-6.1c0.4-0.1,3,1.7,3.5,2
				c0.7,0.3,1.5,0.6,2.2,0.9c2.3,0.8,4.8,1.3,7.3,1.4C746.9,415.8,746.9,412.8,745,412.6L745,412.6z"/>
		</g>
	</g>
	<g>
		<g>
			<path class="st0" d="M742.5,420.1c4,0.2,8.2,0.6,12.2,0.6c1.9,0,4.1-0.4,5.1-2.2c2.5-4.7-5.8-9.7-9-11.5
				c-0.7-0.4-1.6-0.2-2.1,0.5c-1.7,2.7,1,5.5,2.8,7.4c2.7,2.9,6,4.9,9.6,6.4c1.8,0.7,2.6-2.2,0.8-2.9c-2.4-1-4.7-2.3-6.6-4
				c-0.9-0.8-4.8-4.1-4-5.4c-0.7,0.2-1.4,0.4-2.1,0.5c1.6,0.9,3.2,1.9,4.6,3.1c1.6,1.4,5,4,0.9,5c-1.6,0.4-3.9-0.2-5.6-0.2
				c-2.2-0.1-4.4-0.2-6.6-0.3C740.6,417,740.6,420,742.5,420.1L742.5,420.1z"/>
		</g>
	</g>
	<g>
		<g>
			<path class="st0" d="M757.5,409.5c0,2,1.3,3.7,3.2,4.4c0.8,0.3,1.6-0.3,1.8-1c0.2-0.8-0.3-1.6-1-1.8c-0.1-0.1-0.5-0.4-0.6-0.5
				c-0.3-0.4-0.3-0.5-0.3-1C760.4,407.6,757.4,407.6,757.5,409.5L757.5,409.5z"/>
		</g>
	</g>
	<g>
		<g>
			<path class="st0" d="M764,414c1.9,0,1.9-3,0-3C762.1,411,762.1,414,764,414L764,414z"/>
		</g>
	</g>
	<g>
		<g>
			<path class="st0" d="M772.6,414c10.5,2.3,21.1,3.4,31.9,3.4c1.9,0,1.9-3,0-3c-10.5,0-20.9-1.1-31.1-3.3
				C771.5,410.7,770.7,413.6,772.6,414L772.6,414z"/>
		</g>
	</g>
	<g>
		<g>
			<path class="st0" d="M778,418c5.3-0.3,11.7-0.2,16.8-1.9c3.7-1.2,4.2-4.6,4-8.1c-0.1-1.9-3.1-1.9-3,0c0.1,2,0.3,4.1-1.8,5.2
				c-1.4,0.8-4,0.7-5.6,0.9c-3.5,0.4-6.9,0.7-10.4,0.9C776.1,415.1,776.1,418.1,778,418L778,418z"/>
		</g>
	</g>
	<g>
		<g>
			<path class="st0" d="M796,396c0,0.2,0,0.3,0,0.5c0,0.8,0.7,1.5,1.5,1.5c0.8,0,1.5-0.7,1.5-1.5c0-0.2,0-0.3,0-0.5
				c0-0.8-0.7-1.5-1.5-1.5C796.7,394.5,796,395.2,796,396L796,396z"/>
		</g>
	</g>
	<g>
		<g>
			<path class="st0" d="M818.5,313.5c1.8-14.5,2.8-29.2,2-43.8c-0.8-14-3.5-27.8-6.2-41.5c-0.4-1.9-3.3-1.1-2.9,0.8
				c2.9,14.1,5.6,28.2,6.2,42.6c0.6,14-0.4,28-2.1,41.9C815.3,315.4,818.3,315.4,818.5,313.5L818.5,313.5z"/>
		</g>
	</g>
	<g>
		<g>
			<path class="st0" d="M813.5,216c1.9,0,1.9-3,0-3C811.6,213,811.6,216,813.5,216L813.5,216z"/>
		</g>
	</g>
	<g>
		<g>
			<path class="st0" d="M819.2,264.6c-0.7-3.3-1.3-6.6-2-9.9c-0.4-1.9-3.3-1.1-2.9,0.8c0.7,3.3,1.3,6.6,2,9.9
				C816.6,267.2,819.5,266.4,819.2,264.6L819.2,264.6z"/>
		</g>
	</g>
	<g>
		<g>
			<path class="st0" d="M677.6,131.5c-15.9,3-30.3,11-41.3,22.8c-1.3,1.4,0.8,3.5,2.1,2.1c10.7-11.5,24.5-19.1,39.9-22.1
				C680.3,134.1,679.5,131.2,677.6,131.5L677.6,131.5z"/>
		</g>
	</g>
	<g>
		<g>
			<path class="st0" d="M632.9,152.8c-12.6,11-23.7,23.8-32.7,38c-4.7,7.4-9,15.1-11.8,23.4c-2.8,8.1-3.7,16.7-4.2,25.2
				c-1.1,18.4-2.2,37.3,3.2,55.2c5,16.3,14.5,31.8,15.6,49.1c0.2,2.6,0.1,5.3-0.2,7.9c-0.3,2.9-1.4,11.9-7.6,7.7
				c-3.8-2.6-5.2-10.4-6.3-14.6c-2.9-10.9-3-22.2-0.6-33.3c-0.9,0.1-1.8,0.2-2.7,0.4c6.2,11.6,13.2,24.4,12.2,37.9
				c-0.8,11.3-8.2,23.3-20.1,24.8c-1.2,0.2-2.1,1.6-1.1,2.6C587,387,592.5,400.6,592,415c0,1.3,1.7,2,2.6,1.1
				c2.8-3.2,7.4-3.3,10.8-1c3.5,2.4,4.7,6.8,4.6,10.8c-0.1,5.3-4.7,11.3-1.7,16.4c1,1.8,2.9,2.9,4.5,4c3.3,2.3,6,4.6,8.1,8.2
				c3.7,6.1,4.5,13.4,2.5,20.2c-0.5,1.9,2.4,2.7,2.9,0.8c2.1-7.1,1.3-14.7-2.2-21.3c-1.8-3.4-4.3-6.4-7.3-8.7
				c-1.4-1.1-3.4-1.9-4.6-3.3c-2.8-3.1-1.3-6.5-0.3-10c1.8-6.3,1.5-14.4-4-18.9c-4.6-3.7-11.6-3.9-15.6,0.6c0.9,0.4,1.7,0.7,2.6,1.1
				c0.6-15.1-5.3-29.6-16.2-40c-0.4,0.9-0.7,1.7-1.1,2.6c12.1-1.5,20.2-11.8,22.5-23.3c3.1-15.5-5-30.7-12.1-43.9
				c-0.6-1.1-2.5-0.9-2.7,0.4c-2,9.2-2.3,18.6-0.8,28c1.1,7.2,3.1,18.3,9,23.2c4.9,4.1,9.8,0.1,11.3-5c2.3-7.9,1.1-16.9-0.9-24.7
				c-5.1-19.9-15.9-37.4-17.4-58.3c-0.8-10.8-0.2-21.7,0.4-32.5c0.6-11.3,2-22.2,6.7-32.6c9.3-20.6,24.3-38.8,41.2-53.6
				C636.4,153.7,634.3,151.6,632.9,152.8L632.9,152.8z"/>
		</g>
	</g>
	<g>
		<g>
			<path class="st0" d="M629.6,301c-1.8,15.3,5.4,30,6.3,45.1c1,15.9-1.6,31.8-4.2,47.4c-0.3,1.9,2.6,2.7,2.9,0.8
				c2.5-15.3,5.1-30.8,4.4-46.4c-0.3-7.4-1.5-14.5-3.3-21.7c-2-8.4-4.1-16.6-3.1-25.3C632.8,299.1,629.8,299.1,629.6,301L629.6,301z
				"/>
		</g>
	</g>
</g>
<g id="Layer_1">
	<g class="st1">
		<g class="st2">
			<path class="st3" d="M712.7,140.8c9.5-15.8,30.2-11.8,44.5-6.5c4.4,1.6,8.8,3.5,13.2,5.1c4.8,1.7,8,3.3,10.6,8.1
				c4.3,8,8.1,16.4,11.7,24.7c14.9,33.9,25.4,70.6,22.2,107.9c-0.2,1.9,2.8,1.9,3,0c2.7-32.5-4.7-64.6-16.5-94.7
				c-2.8-7.2-5.9-14.3-9.1-21.4c-3.3-7.1-6.2-15.8-11.1-22c-3.6-4.5-10.7-5.7-15.8-7.7c-7.4-2.9-14.8-5.9-22.6-7.3
				c-12.1-2-26,1.1-32.7,12.2C709.1,140.9,711.7,142.5,712.7,140.8L712.7,140.8z"/>
		</g>
	</g>
	<g class="st1">
		<g class="st2">
			<path class="st3" d="M703.3,154.3c6.8-5.6,13.7-11.4,21.8-15.1c8.9-4.1,18.3-4.4,27.9-2.5c8.5,1.7,18.3,3.8,26,8
				c7.7,4.2,12.3,11.8,16.6,19.1c9.6,16.3,15.4,33.3,17.7,52c1.1,8.7,1.5,17.4,1.9,26.1c0.4,9.8,1.1,19.8-0.3,29.6
				c-0.3,1.9,2.6,2.7,2.9,0.8c2.2-15.4,0.7-32.1-0.5-47.6c-1.3-15.4-3.9-30.8-10-45.1c-3-7.1-6.8-13.9-10.8-20.5
				c-3.3-5.3-6.8-10.7-11.8-14.5c-5.6-4.3-12.5-6.2-19.2-8c-7.2-2-14.5-3.9-21.9-4.2c-16.8-0.6-30,9.5-42.3,19.7
				C699.7,153.4,701.8,155.6,703.3,154.3L703.3,154.3z"/>
		</g>
	</g>
	<g class="st1">
		<g class="st2">
			<path class="st3" d="M722.6,146.8c65.7,48.2,131.5,96.3,197.2,144.5c18.7,13.7,37.4,27.4,56.1,41.1c1.2,0.9,2.8-0.8,2.1-2.1
				c-30.9-48.8-59.7-98.9-86.3-150.2c-0.8-1.5-3.4-0.4-2.7,1.2c14.9,36.2,34.8,69.9,54.7,103.5c0.8-0.6,1.6-1.2,2.4-1.8
				c-26.1-33.8-48.8-70.2-67.6-108.6c-0.7-1.5-3.3-0.5-2.7,1.2c12.9,39.6,25.8,79.2,38.7,118.8c0.6,1.8,3.5,1,2.9-0.8
				c-12.9-39.6-25.8-79.2-38.7-118.8c-0.9,0.4-1.8,0.8-2.7,1.2c19,38.6,41.8,75.2,68.1,109.2c1.1,1.4,3.2-0.4,2.4-1.8
				c-19.8-33.4-39.6-66.9-54.4-102.8c-0.9,0.4-1.8,0.8-2.7,1.2c26.6,51.3,55.4,101.4,86.3,150.2c0.7-0.7,1.4-1.4,2.1-2.1
				c-65.7-48.2-131.5-96.3-197.2-144.5c-18.7-13.7-37.4-27.4-56.1-41.1C722.6,143,721.1,145.6,722.6,146.8L722.6,146.8z"/>
		</g>
	</g>
	<g>
		<g>
			<path class="st0" d="M657.1,211.3c6.4-2.7,13.2-5.6,18.1-10.7c2.1-2.1,3.7-4.6,4.7-7.4c2-5.5,2.3-11.3,9.2-12.7
				c1-0.2,1.3-1.4,0.9-2.2c-2.6-5.8-3.5-11.8-2.8-18.1c-0.8,0.4-1.5,0.9-2.3,1.3c11.1,5.9,22.9-0.8,30.9-8.8
				c5.6-5.6,10.4-12.3,17.2-16.7c6.3-4.1,13.9-5.8,21.3-5.4c16.5,1,26.6,13.5,36.5,25.3c10.2,12.1,19.5,25.9,20,42.2
				c0.8-0.4,1.5-0.9,2.3-1.3c-11.6-5.1-25.4,0.7-30,12.5c-0.4,1.1,0.8,2.1,1.8,1.8c11.1-3.1,22.3-2.5,33.1,1.6
				c1.2,0.5,2.4-1.2,1.7-2.2c-3.1-4.8-6.2-9.7-9.2-14.5c-1-1.6-3.6-0.1-2.6,1.5c3.1,4.8,6.2,9.7,9.2,14.5c0.6-0.7,1.1-1.5,1.7-2.2
				c-11.2-4.3-23.1-4.8-34.6-1.6c0.6,0.6,1.2,1.2,1.8,1.8c3.8-9.9,15.8-15,25.5-10.7c1,0.4,2.3,0,2.3-1.3
				c-0.4-14.6-7.5-27.3-16.3-38.6c-8.7-11.2-18.8-25-32.6-29.8c-12.5-4.3-26.7-2-37,6.3c-11.1,9-24.1,32.2-41.6,22.9
				c-1.1-0.6-2.1,0.2-2.3,1.3c-0.8,6.9,0.3,13.3,3.2,19.6c0.3-0.7,0.6-1.5,0.9-2.2c-8.6,1.8-8.7,8.4-11.5,15.3
				c-3.4,8.3-12.7,12.3-20.5,15.5C654.5,209.1,655.3,212,657.1,211.3L657.1,211.3z"/>
		</g>
	</g>
	<g>
		<g>
			<path class="st0" d="M815.4,228.5c0.2-2.8,0.4-5.7,0.6-8.5c0.1-1.9-2.9-1.9-3,0c-0.2,2.8-0.4,5.7-0.6,8.5
				C812.3,230.4,815.3,230.4,815.4,228.5L815.4,228.5z"/>
		</g>
	</g>
	<g>
		<g>
			<path class="st0" d="M816.5,224.5c0-3.5,0-7,0-10.5c0-1.9-3-1.9-3,0c0,3.5,0,7,0,10.5C813.5,226.4,816.5,226.4,816.5,224.5
				L816.5,224.5z"/>
		</g>
	</g>
	<g>
		<g>
			<path class="st0" d="M818.5,314.5c0,1,0,2,0,3c0,1.9,3,1.9,3,0c0-1,0-2,0-3C821.5,312.6,818.5,312.6,818.5,314.5L818.5,314.5z"/>
		</g>
	</g>
	<g>
		<g>
			<path class="st0" d="M818.5,329.5c0.3-0.3,0.6-0.5,0.9-0.8c-0.5,0.1-1,0.3-1.5,0.4c2.2,0.3,2.8,2.6,1.6,4.3
				c-0.5,0.8-1.3,1.4-2.2,1.7c-0.9,0.3-3.1,0.5-2.7-1.2c0.4-1.9-2.5-2.7-2.9-0.8c-0.6,2.5,1.1,4.8,3.7,5.2c2.4,0.3,4.9-1,6.4-2.9
				c1.5-2,1.8-4.6,0.5-6.7c-0.6-1-1.6-1.8-2.7-2.2c-1.5-0.5-2.2,0-3.3,0.9C814.9,328.6,817,330.7,818.5,329.5L818.5,329.5z"/>
		</g>
	</g>
	<g>
		<g>
			<path class="st0" d="M819,353c1.9,0,1.9-3,0-3C817.1,350,817.1,353,819,353L819,353z"/>
		</g>
	</g>
	<g>
		<g>
			<path class="st0" d="M820,351.1c1.1-4.5,0.2-16.1-7.6-11.8c-8.6,4.9-0.1,13.7,4.9,16.8c0.7,0.5,1.6,0.1,2.1-0.5
				c3.3-4.6,10.6-15.3,6.6-21.2c-2.6-3.9-8.9-2.2-7,2.7c0.4,1,1.3,1.3,2.2,0.9c8.7-3.9,7.5-15.6-1.3-18.3c-1-0.3-1.8,0.5-1.9,1.4
				c-1,9.6-2.1,19.2-3.1,28.9c-0.6,5.7-1.3,12.3,3.7,16.3c0.6-0.8,1.2-1.6,1.8-2.4c-3.1-2-8.3-5.4-12.2-5.2c-3.2,0.2-3.5,3.4-3.9,6
				c-1,7.2,1.2,15.9,9.7,16.3c0.8,0,1.5-0.7,1.5-1.5c0-3.6-0.6-8.2-4.6-9.4c-2.6-0.8-5,0.5-6,3c-3.8,9.3,11.9,12.7,17.8,12.7
				c0.9,0,1.8-1,1.4-1.9c-1.8-4.3-11.1-16.6-14.9-7.4c-1.8,4.5-1.5,10.4-0.8,15c0.5,3.4,1.1,9.6,5.4,10.2c0.7,0.1,1.3-0.1,1.7-0.7
				c0.1-0.2,0.3-0.4,0.4-0.6c1-1.4-1.2-3-2.4-1.8c-4,4-7.9,8-11.9,12c-2.2,2.2-5.9,4.6-5.2,8.2c1.2,6,9.2,10,14.5,11.1
				c1,0.2,1.9-0.4,1.9-1.4c0.6-13.1-12-22.2-24.2-17.2c-0.9,0.4-1.6,1.7-0.7,2.5c10.1,8.7,25,3.7,27.9-9.5
				c2.7-12.3-9.3-23.1-21.3-21.8c-6.4,0.7-7,5.4-6.3,11c0.6,4.8,3.3,10,8.9,9.4c5.6-0.6,8.9-6.1,8.6-11.3
				c-0.4-6.7-5.2-14.1-10.6-17.9c-5.2-3.7-12.4-3.5-16.1,2.2c-3.7,5.6-0.9,12.8,5.1,15.3c1,0.4,2.3,0,2.3-1.3
				c-0.1-7.4-1.8-15.7-6.6-21.5c-3-3.7-8.4-6.3-12.7-3.2c-3.6,2.6-3.5,7.5-1.2,11c3.6,5.4,10.8,5.3,16.5,4.9c1-0.1,1.7-0.9,1.4-1.9
				c-1.3-5.9-3.9-12.2-10.3-14c-4.9-1.4-10.1,1.2-10.9,6.5c-1.6,10.7,15.5,11.5,14.7,1.1c-0.4-5.4-5.6-8.8-10.6-9.2
				c-2.9-0.2-14-0.3-12,5.2c1.3,3.7,9.2,8.2,13,6.8c4.7-1.7,2.9-8.5,1.4-11.8c-2-4.6-8-9.6-12.9-5.4c-5.9,5.1,1.4,11.5,5.8,14
				c1.4,0.8,3.1-1.2,1.8-2.4c-3.6-3.2-12.2-9.8-17.5-7.3c-5.2,2.5-1.3,10.9,1.5,13.6c2.5,2.5,8.7,4.7,7.9-1.4
				c-0.9-6.6-12.5-7.9-17.4-7.8c-1.3,0-2,1.6-1.1,2.6c3.6,3.6,8.1,4.8,13,3.7c1.2-0.3,1.5-2.2,0.4-2.7c-5.7-3-11.6-3.9-18-2.8
				c-0.7,0.1-1.1,0.8-1.1,1.4c-0.2,4.9,2.8,8.9,7.6,10c1.6,0.4,2.6-1.8,1.2-2.7c-6.7-4.1-13.4-8.6-20.3-12.2
				c-3.4-1.8-8.4-3.1-10.9,0.9c-2.5,3.9,1,9.3,3.8,12c3.8,3.8,8.9,5.6,14.2,5.4c0.9,0,1.8-0.9,1.4-1.9c-3.3-8.6-10.1-14.8-19-17.4
				c-0.7-0.2-1.7,0.2-1.8,1c-2.2,13.9,7.4,27.7,21.4,30c1.1,0.2,2.1-0.7,1.8-1.8c-1.5-6.4-6.4-10.6-11.9-13.8
				c-3.7-2.1-10-6.2-14.4-3.4c-4.5,2.8-1.3,7.9,1.6,10.4c5.6,4.8,13.1,7.7,20.3,8.6c5.4,0.7,8.9-0.3,7.9-6.2
				c-1.1-6.3-3.3-13.6-7.9-18.2c-5.1-5.2-12.8-5.7-18.8-9.7c-3.4-2.2-9.2-7.4-8.7-12c0.8-7.1,7.6-0.6,9.2,1.2c1.8,2,3.2,4.2,4.5,6.6
				c0.3-0.7,0.6-1.5,0.9-2.2c-7.9,1.7-15.2-6.8-19.2-12.6c-3.6-5.2-6-11.2-7.1-17.4c-0.5-2.6-1.5-7.3-0.3-9.9
				c2.9-6.6,15.4,4.2,7.4,6.9c-1.2,0.4-3.9,1.2-5,0.9c-1.4-1.4-2.8-2.8-4.1-4.2c0-1.5,0.3-3,1-4.4c0.8-1.6,1.9-3,3.3-4
				c2.9-2.1,10.1-2.1,7.8,3.5c-0.7,1.8,2.2,2.6,2.9,0.8c1.4-3.3-0.4-6.9-3.7-8.4c-4.3-2-8.8,0.9-11.4,4.3c-2.5,3.3-4.3,8.7-1.6,12.5
				c2.7,3.7,7.8,3.2,11.7,2c3.2-1.1,6.1-3.2,4.9-6.9c-1.3-4-5.1-8.4-9.5-8.6c-11.8-0.6-5.9,19.7-3.7,25.3c4,10.1,14.6,26,27.4,23.3
				c1-0.2,1.3-1.4,0.9-2.2c-2.5-4.5-6.1-10-11.1-11.8c-3.3-1.3-6.9-0.2-7.9,3.5c-2.6,9.4,9.7,17.5,16.8,20.2c7.7,2.9,13,5.8,16,13.9
				c0.9,2.4,2.6,6.2,2.4,8.7c-0.5,4.9-8.2,1.9-11.1,1.1c-3.6-1.1-7-2.7-10.1-4.8c-1.2-0.8-2.4-1.7-3.5-2.8c0.8-1.6,1.6-3.1,2.4-4.7
				c1-0.5,3.4,1.2,4.4,1.7c6.1,3,12.6,7,14.3,14c0.6-0.6,1.2-1.2,1.8-1.8c-12.2-2-21.3-13.9-19.3-26.3c-0.6,0.3-1.2,0.7-1.8,1
				c7.8,2.2,13.9,7.7,16.9,15.3c0.5-0.6,1-1.3,1.4-1.9c-3.5,0.1-6.8-0.6-9.7-2.6c-1.5-1-3.4-2.6-4.3-4.3c-1.9-2.4-0.9-4.7,3.1-6.9
				c1.1,0.4,2,0.9,3,1.5c6.7,3.7,13.2,7.9,19.7,11.8c0.4-0.9,0.8-1.8,1.2-2.7c-3.6-0.8-5.5-3.5-5.4-7.1c-0.4,0.5-0.7,1-1.1,1.4
				c5.5-0.9,10.7-0.1,15.7,2.5c0.1-0.9,0.2-1.8,0.4-2.7c-3.9,0.9-7.3-0.1-10.1-2.9c-0.4,0.9-0.7,1.7-1.1,2.6c3.4,0,7.8,0.2,10.7,2.1
				c0.9,0.6,4,4.2,1.4,2.3c-1.5-1.1-2.6-3.1-3.1-4.8c-2.3-8.8,12.2,0.5,14.4,2.5c0.6-0.8,1.2-1.6,1.8-2.4c-1.2-0.6-2.4-1.2-3.4-2.1
				c-1.8-1.6-6.2-8.5,1.6-7.5c3,0.4,6,6,5.8,8.7c0.5,1.1,0.1,1.9-1.3,2.4c-1,1.8-2.3,1.9-3.9,0.3c-1-0.5-2.9-1.4-3.4-2.4
				c-1.4-2.4,0.5-2,2.6-2.3c2.2-0.3,4.3-0.6,6.5-0.1c3.8,0.8,7.6,4.5,5.3,8.3c-2.7,4.5-8.9,1.2-7.6-3.7c1.7-6.3,9.9-2.8,12.3,0.8
				c1.5,2.3,2.2,5.1,2.8,7.8c0.5-0.6,1-1.3,1.4-1.9c-3.8,0.3-8.5,0.8-11.9-1.5c-6-4-2-12.9,5-8.2c6.2,4.2,7.8,14.7,7.9,21.5
				c0.8-0.4,1.5-0.9,2.3-1.3c-6.5-2.7-7.3-12.2,0.3-14.1c6.1-1.6,11,4.3,13.8,9c1.9,3.2,3.7,7.3,2.8,11c-0.7,2.9-4.1,6.2-7.3,5.3
				c-3.1-0.9-3.9-4.9-4.1-7.6c-0.2-3.3-0.3-5.9,3.7-6.7c9-1.9,18.9,6.9,18.5,15.8c-0.5,11.9-14.1,18.1-23.2,10.3
				c-0.2,0.8-0.4,1.7-0.7,2.5c10.4-4.3,21,2.9,20.4,14.3c0.6-0.5,1.3-1,1.9-1.4c-2.7-0.6-5.2-1.5-7.4-3.1c-1.3-0.9-2.9-2.1-3.6-3.5
				c-1.3-2.4-0.6-3.5,0.9-5.5c3.9-5.1,9.4-9.6,14-14.1c-0.8-0.6-1.6-1.2-2.4-1.8c-0.1,0.2-0.3,0.4-0.4,0.6c0.6-0.2,1.1-0.5,1.7-0.7
				c-4-0.6-3.7-12.9-3.5-15.5c0.3-3.4,1.4-8.8,5.7-4.9c2,1.8,3.4,3.9,4.4,6.4c0.5-0.6,1-1.3,1.4-1.9c-3.7,0-7.8-0.5-11-2.5
				c-0.8-0.5-3.6-2.1-3.6-3c3-2.7,4.4-2.8,4.3-0.4c0.1,0.9,0.2,1.7,0.2,2.6c0.5-0.5,1-1,1.5-1.5c-4.6-0.2-6.7-4.2-7.1-8.3
				c-0.1-1.7-0.5-5.7,0.7-6.9c2.6-2.6,8.7,2.1,11.2,3.7c1.4,0.9,3.2-1.3,1.8-2.4c-5.6-4.4-2.9-14-2.2-20c0.8-7.7,1.7-15.4,2.5-23.1
				c-0.6,0.5-1.3,1-1.9,1.4c6.7,2.1,6.7,10.1,0.6,12.8c0.7,0.3,1.5,0.6,2.2,0.9c0.7,0.6,1.4,1.3,2.1,1.9c-0.2,1.3-0.5,2.6-0.9,3.8
				c-0.5,1.7-1.3,3.4-2,5c-1.2,2.5-2.7,4.8-4.3,7c0.7-0.2,1.4-0.4,2.1-0.5c-2.6-1.6-7.8-4.6-6.5-8.4c-0.3-2.1,0.6-2.6,2.7-1.4
				c2.2-0.5,3.1,0.2,2.7,2.2c0.3,1.3-0.3,3-0.6,4.2C816.6,352.2,819.5,353,820,351.1L820,351.1z"/>
		</g>
	</g>
	<g>
		<g>
			<path class="st0" d="M689,306c1.9,0,1.9-3,0-3C687.1,303,687.1,306,689,306L689,306z"/>
		</g>
	</g>
	<g>
		<g>
			<path class="st0" d="M678.5,316c1.9,0,1.9-3,0-3C676.6,313,676.6,316,678.5,316L678.5,316z"/>
		</g>
	</g>
	<g>
		<g>
			<path class="st0" d="M681.3,306.4c-1.7-0.6-3.7-1.8-4.5-3.5c-0.9-2-0.3-1.7,1.1-1.9c1-0.2,4.1,0.3,4.8,1.1
				c0.2,1.9,0.4,3.9,0.7,5.8c-0.9,0.5-1.9,1.1-2.8,1.6c-5.4,1.9-12-1-16.6-3.7c-2.7-1.6-11.8-8-8.8-11.3c1.9-2.1,5.7-0.1,7.7,1.5
				c2.4,1.9,3.7,4.3,4.3,7.3c0.3-0.6,0.7-1.2,1-1.8c-7.1,1.2-13-8-14.1-14.1c-0.9-4.8,2-8.5,6.5-9.8c1-0.3,4.4-1.2,5.4-0.4
				c0.5,1.3,1.1,2.6,1.6,3.9c-2.5,2.2-4.8,2.4-6.9,0.6c-5.7-3.1-7.9-10.7-9.1-16.6c-0.1-0.5-0.9-3.6-0.7-3.8
				c0.3,0.3,0.6,0.6,0.9,0.9c1.5,0.9,1.8,2.2,0.8,3.6c-0.8,2.8-0.9,1.5-2.8,2.5c-0.6,0.3-1,0.6-1.5,1.1c-1.5,1.3,0.7,3.4,2.1,2.1
				c2.2-1.9,4.8-0.8,6-4c0.8-2.2-0.1-4.4-1.4-6.2c-1.7-2.3-5.8-5.5-7-1c-0.8,3,1.1,8.2,2.1,11c1.1,3.2,2.5,6.4,4.6,9.1
				c3.2,4,9.3,8,14,3.9c3.2-2.8,3.1-7.7-0.9-9.6c-4.6-2.2-12,0.5-14.9,4.4c-7.1,9.4,5,27.2,16.1,25.3c0.8-0.1,1.2-1.1,1-1.8
				c-0.9-5.1-4.4-9.4-9.4-11.2c-2.9-1-8.6-1.8-9.6,2.2c-1.1,4.2,4,9.3,6.8,11.7c4.6,3.8,10.7,6.9,16.7,7.6
				c4.5,0.5,10.6-0.4,12.7-5.1c1.7-3.7-0.7-7.3-4.1-8.8c-2.4-1-8.4-2.5-9.8,0.6c-2,4.2,4,8.7,7.2,9.7
				C682.3,309.9,683.1,307,681.3,306.4L681.3,306.4z"/>
		</g>
	</g>
	<g>
		<g>
			<path class="st0" d="M655.9,289.1c2.9,2.6,5.9,5.2,8.8,7.7c1.4,1.2,2.7,2.4,4.1,3.6c0.6,0.5,1.1,1,1.7,1.5
				c1.7,1.2,1.7,2.9,0.1,5.1c0.1,0.9,0.2,1.8,0.4,2.7c3.9-1.7,7.9-0.9,11,1.9c0.1-0.8,0.2-1.6,0.3-2.4c-1.7,1.2-8.4-7.3-8.5-8.1
				c-0.2-1.9,0-1.7,2.2-2.2c2.3-0.5,4.6-0.5,7-0.4c1.4,0.1,2.1-2.2,0.8-2.8c-4.6-2.2-8.1-5.3-10.7-9.7c-0.6,0.7-1.1,1.5-1.7,2.2
				c4.6,1.3,11.5,2.8,14.1,7c2.3,3.7,1.1,10.1,1,14.4c0.9-0.4,1.7-0.7,2.6-1.1c1.5-5,3.7-5.9,6.6-2.7c0.8,0.9,1.4,2,1.9,3.1
				c0.7,1.5,2.6,5.4,1.4,7c0.6-0.1,1.2-0.2,1.8-0.2c3.4,1.7,4.2,6.1,5.7,9.3c1.5,3.4,3,6.8,4.5,10.2c0.8,1.8,3.4,0.2,2.6-1.5
				c-2.1-4.8-4.3-9.6-6.4-14.4c-1.1-2.5-2.1-6-5.1-6.9c-3.9-1.1-6.6,4-2.8,5.9c0.5,0.3,1.4,0.3,1.8-0.2c3.9-5.1-1.8-15.4-7.5-17
				c-5.8-1.6-11.5,5-6.6,9.6c1,0.9,2.5,0.2,2.6-1.1c0.1-3.6,0.2-7.2,0.1-10.9c0-2.3,0.1-4.4-1.5-6.2c-3.4-3.9-11.2-5.8-16-7.2
				c-1.3-0.4-2.3,1.1-1.7,2.2c2.8,4.9,6.7,8.5,11.7,10.8c0.3-0.9,0.5-1.9,0.8-2.8c-3.7-0.2-14.9-0.5-12.5,5.9
				c1.3,3.5,8.9,13.7,13.3,10.4c0.7-0.5,1.1-1.6,0.3-2.4c-4.2-3.9-9.4-4.6-14.6-2.4c-1.2,0.5-0.8,2.4,0.4,2.7c4.1,1.1,6.9-3,5.4-6.8
				c-1.1-2.8-4.1-4.8-6.2-6.6c-3.6-3.2-7.2-6.3-10.9-9.5C656.6,285.7,654.5,287.8,655.9,289.1L655.9,289.1z"/>
		</g>
	</g>
	<g>
		<g>
			<path class="st0" d="M716.8,337.4c8.5-5.9,16.1,16.4,3,19.5c-7.9,1.9-18.5-5.9-20-13.8c-1.3-6.8,6-11.6,11.1-6.1
				c2.5,2.7,4,8.4,1.8,11.7c-4.1,6.2-10.7-1.9-13.2-5.1c-2.4-3-8.6-11-2.5-13.8c7-3.3,17.1,3.1,16,10.8c-1.4,9.4-11.7,12-19.6,9.9
				c-7.7-2.1-14.5-7.5-19.5-13.5c-1.4-1.7-4.6-4.6-1.4-6.9c1.1-0.8,3.7-0.7,4.9-0.6c4.5,0.2,8.6,2.7,11.1,6.4
				c0.4-0.8,0.9-1.5,1.3-2.3c-8.9,0.7-17.2-4.2-20.5-12.6c-0.2,0.6-0.5,1.1-0.7,1.7c2.4-1.8,10.8,5.8,12.6,7.2
				c3.7,2.8,7.2,5.8,10.6,8.9c0-0.7,0-1.4,0-2.1c-4,3.6-14.9-10.2-17-12.9c-4.4-5.7-7.7-12-10-18.7c-0.3,0.6-0.7,1.2-1,1.8
				c4.8-1.3,10.4,2.2,14.7,4.1c3.6,1.6,7.2,3.3,10.8,5.1c7.1,3.5,14.1,7.3,20.9,11.4c0.1-0.9,0.2-1.8,0.4-2.7
				c-4.8,1.8-9.5,2.2-14.5,1.3c-1.9-0.4-2.7,2.5-0.8,2.9c5.6,1.1,10.8,0.7,16.1-1.3c1.2-0.4,1.5-2,0.4-2.7c-8.4-5-17-9.6-25.8-13.8
				c-6.4-3-15.5-9.1-22.8-7.1c-0.7,0.2-1.3,1.1-1,1.8c3.2,9.1,8.1,17.5,14.7,24.7c3.5,3.8,11.6,13.3,17.3,8.3c0.6-0.5,0.6-1.6,0-2.1
				c-4.8-4.4-9.9-8.5-15.2-12.3c-2.9-2.1-7.9-7-11.6-4.2c-0.5,0.4-0.9,1-0.7,1.7c3.7,9.6,13.1,15.7,23.4,14.8c1-0.1,2-1.2,1.3-2.3
				c-2.6-3.7-6.2-6.4-10.7-7.4c-3.6-0.8-9.9-1-12.3,2.6c-2.3,3.4,1.5,7.1,3.6,9.6c4.3,5.1,9.7,9.6,15.8,12.4
				c9.4,4.3,21.9,4.1,27.1-6.3c4.5-8.9-2-17.5-11.1-18.8c-29.3-4.3,2.5,39.8,11.8,23.7c4.3-7.5-1.5-19.8-10.8-18.7
				c-4,0.5-6.8,3.5-7.6,7.3c-1.1,5,1.5,9.8,4.8,13.3c6.7,7.2,21.7,12.9,27.2,1.1c3.7-7.9-2.8-25.8-13.5-18.4
				C713.7,335.9,715.2,338.5,716.8,337.4L716.8,337.4z"/>
		</g>
	</g>
	<g>
		<g>
			<path class="st0" d="M750.5,358c6.3-0.7,11.8,1.7,15.6,6.7c0.7-0.7,1.4-1.4,2.1-2.1c-1.8-1.6-7.2-6.5-5-9.5
				c2.6-3.5,10.7-1.1,13.4,0.5c0.1-0.9,0.2-1.8,0.4-2.7c-2-3.2-1.3-3.8,2.3-2c-0.1-0.8-0.2-1.6-0.3-2.4c-1.6-1.6-1.8-2.6-0.6-2.9
				c0.4-0.2,0.8-0.5,1.2-0.8c0.3-0.5,0.6-1,0.8-1.6c0.7-2.3-0.3-5.9-0.7-8.2c-1,0.3-1.9,0.5-2.9,0.8c-0.4-1.1-1-2.1-1.6-3.1
				c-0.9-1.7-3.5-0.2-2.6,1.5c1,1.9,2.7,6.2,5.5,5.4c2.2-0.6,2.2-2.8,1.6-4.6c-0.6-1.9-3.2-1.1-2.9,0.8c0.5,2.7,1.6,5.4-0.7,7.4
				c-0.4,0.4-1.2,0.5-1.6,1c-1.1,1.3-1.8,2.9-1.4,4.7c0.9,3.9,5.4,4.1,7.9,1.8c0.7-0.6,0.6-2-0.3-2.4c-3.2-1.5-6.7-1.8-9.5,0.6
				c-0.4,0.4-0.5,1-0.4,1.5c0.6,3.4,3.2,6.6,6.9,5.4c1.2-0.4,1.5-2.1,0.4-2.7c-4.6-2.7-13.4-4.3-17.6,0.3
				c-3.8,4.1,2.5,10.8,5.5,13.4c1.5,1.3,3.3-0.6,2.1-2.1c-4.3-5.6-10.8-8.3-17.8-7.6C748.6,355.2,748.6,358.2,750.5,358L750.5,358z"
				/>
		</g>
	</g>
	<g>
		<g>
			<path class="st0" d="M776.5,364.5c1.9,0,1.9-3,0-3C774.6,361.5,774.6,364.5,776.5,364.5L776.5,364.5z"/>
		</g>
	</g>
	<g>
		<g>
			<path class="st0" d="M779.7,362.3c-0.5,0.4-1.6-0.1-2-0.4c-0.7-0.5-1.3-1.4-1.8-2.2c-1.1-1.6-1.8-3.3-2.4-5.1
				c-0.2,0.6-0.5,1.1-0.7,1.7c1.9-1.1,4.5-0.1,5.2,2c0.6,1.8,3.5,1.1,2.9-0.8c-1.2-4-6-5.9-9.6-3.8c-0.6,0.3-0.9,1.1-0.7,1.7
				c1,3.5,4.2,10.9,9,9.8c1.7-0.4,3.1-2.2,2.4-4c-0.8-1.9-2.9-2.3-4.4-1.1C776.1,361.3,778.2,363.5,779.7,362.3L779.7,362.3z"/>
		</g>
	</g>
	<g>
		<g>
			<path class="st0" d="M786.7,358.9c0.7-0.2,4.1-0.8,3.7-0.5c-1,0.8,1.2-4.2,2-4.9c1.3-1.2,3.1-2,4.8-2.4c0.6-0.2,1.2-0.3,1.7-0.3
				c1.4,0.1,1.5-0.3,0.1-1.2c0.1-3.6,0.4-6,3.8-8.3c2.7-1.8,6.7-2.2,9.8-2.6c-0.1-1-0.3-2-0.4-2.9c-0.2-0.5-0.5-1-0.7-1.5
				c0.4-0.1,0.7-0.2,1.1-0.4c0.5-0.4,1.3-0.6,1.9-0.9c1.1-0.8,1.8-1.8,2.4-3c1.6-3.8,0.1-8.2,0.5-12.2c-0.9,0.3-1.9,0.5-2.8,0.8
				c0.9,1.3,1.7,2.6,2.6,3.8c0.3-0.7,0.6-1.5,0.9-2.2c-3.4,0.5-6.6,0.6-10,0.5c-0.6,0-1.4,0.5-1.4,1.1c-0.4,2.4,1.4,3.6,0.9,6
				c-0.8,4-3.3,8.3-4.8,12.1c-0.7,1.8,2.2,2.6,2.9,0.8c1.6-4.1,4-8.4,5-12.7c0.2-0.9,0.4-1.6,0.2-2.6c-0.2-1-1.5-1.9-1.3-2.9
				c-0.5,0.4-1,0.7-1.4,1.1c3.7,0.2,7.2,0,10.8-0.6c0.9-0.1,1.4-1.5,0.9-2.2c-0.9-1.3-1.7-2.6-2.6-3.8c-0.9-1.3-2.6-0.7-2.8,0.8
				c-0.6,5.3,2,10.6-3.6,13.6c-1.6,0.8-3.2,1-3.9,2.9c-1.3,3.8,3.3,5.1,6.2,4.3c1.6-0.4,1.3-3.1-0.4-2.9c-5.1,0.6-11,1.4-14.5,5.6
				c-2.5,3.1-3.5,8.4-0.6,11.7c1.8,2,5.9,3.2,7.3,0c1.8-4.2-3.6-5.5-6.5-5.2c-4.8,0.6-9.7,3.4-10.9,8.3c-0.9,3.7,0.6,8.7,5,9.3
				c3.6,0.5,5.8-2.8,4.6-6c-1.7-4.8-7.2-4.2-11.2-3.3C784,356.4,784.8,359.3,786.7,358.9L786.7,358.9z"/>
		</g>
	</g>
	<g>
		<g>
			<path class="st0" d="M736.2,316.3c0.5-2.3,1.4-4.4,2.7-6.3c-0.8,0.1-1.6,0.2-2.4,0.3c0-0.2,0.1-0.5,0.1-0.7
				c-1.5,1.2,0,3.8,1.5,2.6c1.4-1.1,1.6-2.7,0.5-4c-0.7-0.8-1.9-0.4-2.4,0.3c-1.4,2.1-2.5,4.5-3,7
				C732.9,317.4,735.8,318.2,736.2,316.3L736.2,316.3z"/>
		</g>
	</g>
	<g>
		<g>
			<path class="st0" d="M742.2,312.9c0.8-3.2,2.9-5.7,4.1-8.7c1.1-2.8,1.6-5.6,1.6-8.6c0-1.9-3-1.9-3,0c0,3.5-0.8,6.7-2.5,9.8
				c-1.2,2.2-2.4,4.3-3.1,6.7C738.9,313.9,741.8,314.7,742.2,312.9L742.2,312.9z"/>
		</g>
	</g>
	<g>
		<g>
			<path class="st0" d="M751.4,299.9c0.2-1.4,1.1-2.5,2.5-2.9c1.9-0.5,1.1-3.4-0.8-2.9c-2.3,0.6-4.2,2.6-4.6,5
				c-0.1,0.8,0.2,1.6,1,1.8C750.3,301.1,751.3,300.7,751.4,299.9L751.4,299.9z"/>
		</g>
	</g>
	<g>
		<g>
			<path class="st0" d="M762.9,294.9c0.8-3.1,2.1-6,3.9-8.7c1.1-1.6-1.5-3.1-2.6-1.5c-1.9,2.9-3.3,6-4.2,9.4
				C759.5,296,762.4,296.7,762.9,294.9L762.9,294.9z"/>
		</g>
	</g>
	<g>
		<g>
			<path class="st0" d="M794.5,286c0,1,0,2,0,3c0,1.9,3,1.9,3,0c0-1,0-2,0-3C797.5,284.1,794.5,284.1,794.5,286L794.5,286z"/>
		</g>
	</g>
	<g>
		<g>
			<path class="st0" d="M794.3,289.5c-0.9,4.4-1.1,8.9-0.6,13.3c0.1,0.8,0.6,1.5,1.5,1.5c1.5,0.1,2.9,0.1,4.4,0.2
				c1.9,0.1,1.9-2.9,0-3c-1.5-0.1-2.9-0.1-4.4-0.2c0.5,0.5,1,1,1.5,1.5c-0.4-4.2-0.3-8.4,0.5-12.6
				C797.5,288.5,794.6,287.7,794.3,289.5L794.3,289.5z"/>
		</g>
	</g>
	<g>
		<g>
			<path class="st0" d="M799.3,297.1c-1.2,7.1,0.9,14,5.9,19.2c1.3,1.4,3.5-0.7,2.1-2.1c-4.2-4.4-6.1-10.3-5.1-16.3
				C802.5,296.1,799.6,295.2,799.3,297.1L799.3,297.1z"/>
		</g>
	</g>
	<g>
		<g>
			<path class="st0" d="M703,203.8c2.6-0.8,5.1-1.2,7.8-1.2c1.8,0,1.9-2.4,0.4-2.9c-3.4-1.3-6.7-2.8-9.9-4.5
				c-1.7-0.9-3.2,1.7-1.5,2.6c3.4,1.8,7,3.4,10.6,4.8c0.1-1,0.3-2,0.4-2.9c-2.9,0-5.8,0.4-8.6,1.3
				C700.4,201.4,701.1,204.3,703,203.8L703,203.8z"/>
		</g>
	</g>
	<g>
		<g>
			<path class="st0" d="M712,196.5c1.9,0,1.9-3,0-3C710.1,193.5,710.1,196.5,712,196.5L712,196.5z"/>
		</g>
	</g>
	<g>
		<g>
			<path class="st0" d="M708.5,198.5c6.7,0.1,13.3,0.3,20,0.4c7.7,0.2,13.7,1.5,20.6,5.1c1.7,0.9,3.2-1.7,1.5-2.6
				c-6-3.1-11.6-5.2-18.4-5.4c-7.9-0.2-15.8-0.3-23.7-0.5C706.6,195.4,706.6,198.4,708.5,198.5L708.5,198.5z"/>
		</g>
	</g>
	<g>
		<g>
			<path class="st0" d="M793.5,205.8c5.4-2.5,11.2-3.3,17.1-2.3c1.7,0.3,2.6-1.7,1.2-2.7c-1.9-1.4-4.4-4.2-6.9-4
				c-0.7,0-1,0.1-1.6,0.5c-0.1,0.1-1.5,1.7-1.1,1.7c-1.9,0-1.9,3,0,3c1.2,0,1.3-0.5,2.2-1.1c1.2-0.8,0.8-0.7,2.5,0.1
				c1.2,0.6,2.3,1.7,3.4,2.4c0.4-0.9,0.8-1.8,1.2-2.7c-6.7-1.1-13.2-0.2-19.4,2.6C790.2,204,791.7,206.6,793.5,205.8L793.5,205.8z"
				/>
		</g>
	</g>
	<g>
		<g>
			<path class="st0" d="M730,121.5c1.9,0,1.9-3,0-3C728.1,118.5,728.1,121.5,730,121.5L730,121.5z"/>
		</g>
	</g>
	<g>
		<g>
			<path class="st0" d="M731.2,120.2c3.6-16.9,31.8,2.6,39.3,6.6c6.3,3.3,12.8,6.5,17.9,11.7c4.8,4.9,8,10.9,9.9,17.5
				c0.8-0.5,1.7-1,2.5-1.5c-12.4-10.8-24.4-22.4-37.4-32.4c-5.2-4-10.6-6.5-17.1-7.3c-3.8-0.5-7.6-0.4-11.4-0.4
				c-3.7,0-11.4,1-12.5-3.9c-0.4-1.9-3.3-1.1-2.9,0.8c1,4.7,5.8,5.9,10.1,6.1c9.4,0.6,18.7-1,27.3,3.9c7.6,4.4,14.1,11.2,20.7,16.9
				c7,6.1,14.1,12.3,21.1,18.4c1.1,0.9,2.9,0.1,2.5-1.5c-2-7.3-5.7-14-11.2-19.4c-6.9-6.8-16.1-10.7-24.5-15.1
				c-7.2-3.8-15.2-9.6-23.5-10.3c-6.1-0.5-12.4,2.7-13.7,9C727.9,121.3,730.8,122.1,731.2,120.2L731.2,120.2z"/>
		</g>
	</g>
	<g>
		<g>
			<path class="st0" d="M744.5,120.6c13.6,5.2,26.5,11.9,38.6,20c0.3-0.9,0.5-1.9,0.8-2.8c-29.2-2.4-53.6-20.4-76.2-37.5
				c-0.3,0.9-0.5,1.9-0.8,2.8c16.8-1.1,33.6,3.8,49.4,8.9c13.7,4.4,31.2,8.9,39.4,21.8c0.6-0.7,1.1-1.5,1.7-2.2
				c-17.8-6.6-33.1-18.6-51.1-24.5c-19.8-6.5-40.5-2.5-60.3,1.7c-1.3,0.3-1.5,2.1-0.4,2.7c3.2,1.7,6.2,2,9.6,0.9
				c1.8-0.6,1-3.5-0.8-2.9c-2.5,0.8-5,0.7-7.3-0.6c-0.1,0.9-0.2,1.8-0.4,2.7c20.6-4.4,41.5-8.2,61.8-0.6c16.8,6.3,31.2,17.2,48,23.5
				c1.2,0.5,2.4-1.1,1.7-2.2c-8.2-12.7-24.1-17.5-37.7-22c-17.1-5.7-35.5-11.3-53.8-10.1c-1.6,0.1-1.9,1.9-0.8,2.8
				c23.2,17.5,47.9,35.4,77.7,37.9c1.6,0.1,1.9-2,0.8-2.8c-12.4-8.2-25.5-15-39.4-20.3C743.5,117,742.7,119.9,744.5,120.6
				L744.5,120.6z"/>
		</g>
	</g>
	<g>
		<g>
			<path class="st0" d="M665.5,114c-8.4-0.2-19.7-0.5-27.4,3.3c-6,2.9-7.8,10.5-8.1,16.6c-0.1,1.7,2.7,2.1,2.9,0.4
				c0.3-2.5,0.7-4.9,1-7.4c0.3-1.9-2.6-2.7-2.9-0.8c-0.3,2.5-0.7,4.9-1,7.4c1,0.1,2,0.3,2.9,0.4c0.2-3.7,0.9-7.5,2.9-10.6
				c2.1-3.3,5.5-4.1,9.1-4.8c6.8-1.3,13.6-1.7,20.5-1.5C667.4,117,667.4,114,665.5,114L665.5,114z"/>
		</g>
	</g>
	<g>
		<g>
			<path class="st0" d="M620.6,132.7c-2.2,3.6-3,7.5-3.2,11.7c-0.1,2.9-0.8,7.4,2.3,8.9c1.7,0.9,3.2-1.7,1.5-2.6
				c-1.6-0.8-0.8-6.8-0.7-8.1c0.3-3.1,1-5.8,2.6-8.4C624.3,132.6,621.7,131.1,620.6,132.7L620.6,132.7z"/>
		</g>
	</g>
	<g>
		<g>
			<path class="st0" d="M614.4,135.1c-9.4,16.7-17.9,33.8-25.6,51.3c-2.5,5.8-6.7,12.6-3.8,19.1c2.7,6,9.3,9.1,12.7,14.7
				c0.7,1.2,3,0.8,2.8-0.8c-2.3-21.4,4-42.8,17.6-59.4c1.2-1.5-0.8-3.6-2.1-2.1c-19.5,21.2-33.3,47.1-39.9,75.2
				c-0.4,1.9,2.4,2.7,2.9,0.8c6.5-27.6,20-53,39.2-73.8c-0.7-0.7-1.4-1.4-2.1-2.1c-14.1,17.2-20.9,39.3-18.5,61.5
				c0.9-0.3,1.9-0.5,2.8-0.8c-2.8-4.6-7.3-7.4-10.7-11.5c-6.2-7.5,1.5-18.7,4.9-26.1c6.9-15.1,14.4-29.9,22.5-44.4
				C618,134.9,615.4,133.4,614.4,135.1L614.4,135.1z"/>
		</g>
	</g>
	<g>
		<g>
			<path class="st0" d="M591.3,279.1c-4.2-16.1-7.7-32.5-9.2-49.1c-0.2-1.9-3-2-3,0c-0.1,15.9-0.9,31.9-0.3,47.8
				c0.2,6.7,1.7,12.8,3.9,19.1c2.8,8.4,4.3,16.2,2.9,25.1c-1.3,7.9-3.8,15.7-6,23.4c-1,3.5-1.8,7.2-3,10.7c-1.3,3.9-3.5,5.7-6.5,8.3
				c-6.1,5.3-4.2,16,4.5,17.2c1.9,0.3,2.7-2.6,0.8-2.9c-3.4-0.5-6.3-3.5-6.1-7.1c0.2-3.4,2.9-4.9,5.2-6.8c4.1-3.5,5.1-8,6.5-13
				c3.6-13,9.2-27.1,8.2-40.8c-0.5-6-2.5-11.6-4.4-17.3c-2.2-6.7-3-13.2-3-20.3c0-14.5,0.2-28.9,0.3-43.4c-1,0-2,0-3,0
				c1.6,16.9,5.1,33.5,9.3,49.9C588.9,281.8,591.8,281,591.3,279.1L591.3,279.1z"/>
		</g>
	</g>
	<g>
		<g>
			<path class="st0" d="M619.3,329.1c-2.7,5.7-4,11.7-3.8,17.9c0.1,1.9,3.1,1.9,3,0c-0.2-5.8,0.9-11.2,3.4-16.4
				C622.7,328.8,620.2,327.3,619.3,329.1L619.3,329.1z"/>
		</g>
	</g>
	<g>
		<g>
			<path class="st0" d="M597.8,318.5c-1,7.8-1.6,15.6-1.7,23.5c-0.1,7.2,0.7,14.2,0.8,21.4c0.1,5.8-3.2,10.2-0.7,16
				c2.5,5.7,7.1,10.9,11.1,15.6c4,4.7,8.6,8.9,12.5,13.7c5.3,6.6,6.8,13.1,5.1,21.4c-1.8,8.9-4.4,19.8,4.3,25.9
				c1.6,1.1,3.1-1.5,1.5-2.6c-10.5-7.5-0.8-23-2.2-33.2c-1.4-10.3-10.1-17.4-16.7-24.7c-4.4-4.9-9.2-10.3-12.3-16.2
				c-2.1-4-1.2-6.4-0.1-10.3c0.7-2.7,0.4-5.5,0.2-8.3c-1-14.1-0.6-28.1,1.2-42.1C601,316.6,598,316.7,597.8,318.5L597.8,318.5z"/>
		</g>
	</g>
	<g>
		<g>
			<path class="st0" d="M522.5,456.1c5.8,9.2,13.6,19.7,25.9,17.5c10.8-2,20-10,24.9-19.6c0.9-1.7-1.7-3.2-2.6-1.5
				c-4.1,8.1-11.1,14.7-19.9,17.4c-12.4,3.8-19.9-5.9-25.8-15.3C524.1,453,521.5,454.5,522.5,456.1L522.5,456.1z"/>
		</g>
	</g>
	<g>
		<g>
			<path class="st0" d="M581,304.5c1.9,0,1.9-3,0-3C579.1,301.5,579.1,304.5,581,304.5L581,304.5z"/>
		</g>
	</g>
</g>
</svg>
