
<svg width="483px" height="431px" viewBox="0 0 483 431" version="1.1" xmlns="http://www.w3.org/2000/svg" xmlns:xlink="http://www.w3.org/1999/xlink">
    <!-- Generator: Sketch 51.3 (57544) - http://www.bohemiancoding.com/sketch -->
    <desc>Created with Sketch.</desc>
    <defs></defs>
    <style type="text/css">
	<!-- .st0{fill:#FF69B4;} -->
	.st1{display:none;}
	.st2{display:inline;}
	.st3{fill:#AEFF14;}

	#Group {
  animation: pulse 5s infinite;
}

@keyframes pulse {
  0% {
    fill: #FF69B4;
  }
  100% {
    fill: #AEFF14;
  }
}

#Layer_1 {
  animation: pulse 3s infinite;
}

@keyframes pulse {
  0% {
    
    fill: #AEFF14;
  }
  100% {
    fill: #FF69B4;
    
    
  }
}
</style>
    <g id="Page-1" stroke="none" stroke-width="1" fill="none" fill-rule="evenodd">
        <g id="Artboard" fill="#FF69B4" fill-rule="nonzero">
            <g id="Group" transform="translate(38.000000, 17.000000)">
                <g id="Layer_2" transform="translate(0.000000, 18.000000)">
                    <path d="M234.5,94 C234.5,94.3 234.5,94.7 234.5,95 C234.5,95.8 235.2,96.5 236,96.5 C236.8,96.5 237.5,95.8 237.5,95 C237.5,94.7 237.5,94.3 237.5,94 C237.5,93.2 236.8,92.5 236,92.5 C235.2,92.5 234.5,93.2 234.5,94 Z" id="Shape"></path>
                    <path d="M238.8,119 C238.2,111.5 244.6,105.5 243.4,97.9 C242.7,93.5 240,89.5 235.2,89.7 C233.8,89.7 233.1,91.8 234.4,92.5 C248.9,100.1 235.6,120.7 236.2,132.3 C236.5,138.5 238.9,144.3 241.9,149.7 C245.2,155.4 249.1,161.9 253.9,166.5 C258.7,171.2 265.4,171.2 271.1,174 C277.7,177.2 282.7,182.4 286.1,188.8 C291.1,198.1 296.6,212 309.9,209.1 C310.6,209 311,208.3 311,207.7 C311.2,202.3 311.6,196.7 313.3,191.6 C315.6,184.6 320.1,180.9 327.1,178.8 C337,175.9 344.9,171 349.6,161.5 C350.5,159.8 347.9,158.3 347,160 C344.1,165.9 339.6,170.7 333.6,173.5 C328.2,176.1 321.8,176.3 317.1,180.3 C309.3,186.8 308.4,198.3 308.1,207.7 C308.5,207.2 308.8,206.7 309.2,206.3 C300.4,208.3 295,199.9 291.7,193.2 C289,187.9 286.5,182.6 282.2,178.4 C278.4,174.6 273.8,171.7 268.8,169.9 C265.3,168.6 261.3,168.4 258.2,166.3 C254.8,164.1 252.5,160.3 250.2,157 C246,151.1 241.9,144.8 240.1,137.8 C238.1,129.8 240.6,122.7 242.6,115 C244.9,106.3 245.2,94.9 236,90 C235.7,90.9 235.5,91.9 235.2,92.8 C242.1,92.6 240.6,102.1 239.1,106 C237.4,110.3 235.4,114.3 235.8,119.1 C235.9,120.9 238.9,120.9 238.8,119 Z" id="Shape"></path>
                    <path d="M369.5,164 C369.3,169.6 369.1,178.7 374.1,182.5 C377.2,184.8 380.6,186.2 383.3,189 C386.6,192.5 388.7,196.7 389.9,201.3 C390.4,203.2 393.3,202.4 392.8,200.5 C391.2,194.4 388,188.9 383.2,184.8 C380.4,182.4 375.8,181 374.1,177.7 C372.1,173.8 372.3,168.2 372.4,164 C372.5,162.1 369.5,162.1 369.5,164 Z" id="Shape"></path>
                    <path d="M353.5,162 C353.5,163.7 353.5,165.3 353.5,167 C353.5,168.9 356.5,168.9 356.5,167 C356.5,165.3 356.5,163.7 356.5,162 C356.5,160.1 353.5,160.1 353.5,162 Z" id="Shape"></path>
                    <path d="M317.1,215.4 C319.3,201.5 326.4,189.3 337.5,180.6 C339,179.4 336.9,177.3 335.4,178.5 C324,187.5 316.5,200.3 314.3,214.6 C313.9,216.4 316.8,217.3 317.1,215.4 Z" id="Shape"></path>
                    <path d="M352,168.5 C353.9,168.5 353.9,165.5 352,165.5 C350.1,165.5 350.1,168.5 352,168.5 Z" id="Shape"></path>
                    <path d="M350.7,166.6 C348.5,173.6 342.7,178.5 335.5,179.8 C333.6,180.1 334.4,183 336.3,182.7 C344.5,181.2 351.1,175.3 353.6,167.4 C354.2,165.6 351.3,164.8 350.7,166.6 Z" id="Shape"></path>
                    <path d="M278.7,88.2 C281.4,88.7 285.8,90.6 288.4,88.9 C289.8,88 290.2,85.8 291.9,84.9 C294.2,83.7 299.6,84.2 302.2,84.2 C315,84.5 327.9,87.4 340.6,89.4 C341.9,89.6 343,88.4 342.3,87.2 C336.1,75.8 321.6,77.2 310.5,76.2 C303.1,75.5 295.2,74 287.8,74.3 C285.9,74.4 284,74.7 282.4,75.8 C280.2,77.3 279.2,80.9 276.8,81.7 C275,82.3 275.8,85.2 277.6,84.6 C281.6,83.3 282.3,78.4 286.7,77.5 C292.1,76.4 299.2,78.3 304.7,78.7 C310.7,79.2 316.6,79.8 322.6,80.3 C329.7,80.9 336.2,81.8 340,88.7 C340.6,88 341.1,87.2 341.7,86.5 C329.7,84.6 317.5,82.1 305.3,81.3 C300.7,81 294.6,80.5 290.2,82.3 C288.9,82.8 288.4,83.5 287.5,84.3 C284.9,86.6 283.2,85.8 279.8,85.2 C277.6,84.9 276.8,87.8 278.7,88.2 Z" id="Shape"></path>
                    <path d="M309.5,218.4 C310.6,223.5 306.8,232 313,235.2 C315.8,236.6 318.2,235.3 320.7,233.9 C325.3,231.5 328.8,231.2 333.9,231.4 C339.8,231.7 345.3,230.9 349,225.9 C353,220.6 353.7,213.5 357.2,208 C356.3,208 355.5,208 354.6,208 C356.5,212.3 358.3,216.6 359.8,221.1 C360.6,223.4 361.1,226.4 362.5,228.4 C364.9,231.7 368.3,230.7 370.8,228.2 C375.6,223.3 379.3,216.8 383.4,211.4 C387.3,206.2 393.2,200.6 393.8,193.9 C394,192 391,192 390.8,193.9 C390.3,199.2 385,204.3 381.9,208.3 C379,212.2 376.1,216 373.3,219.9 C372.2,221.4 370.2,225.2 368.7,226 C364.1,228.4 363.2,221.6 362.4,219.3 C360.8,214.9 359.1,210.7 357.2,206.4 C356.7,205.3 355.2,205.5 354.6,206.4 C352.2,210.2 351,214.5 349.4,218.7 C346.7,225.7 342.4,228.7 334.7,228.4 C329.6,228.2 325.2,227.9 320.5,230.4 C318.4,231.6 318.3,232 315.5,231.5 C312.3,230.9 312.3,229.7 312.3,226.7 C312.3,223.4 313.1,220.7 312.4,217.4 C311.9,215.7 309,216.5 309.5,218.4 Z" id="Shape"></path>
                    <path d="M331.6,192.1 C334.2,190.6 337.1,190.1 340,190.5 C341.9,190.8 342.7,187.9 340.8,187.6 C337,187 333.4,187.6 330,189.5 C328.4,190.5 330,193.1 331.6,192.1 Z" id="Shape"></path>
                    <path d="M341,190.3 C347.2,189.6 353.3,189.8 359.4,190.7 C364.4,191.4 372.3,191.6 376.4,194.7 C377.9,195.9 379.4,193.3 377.9,192.1 C373.6,188.8 366.1,188.6 360.9,187.9 C354.3,186.9 347.6,186.5 341,187.3 C339.1,187.5 339,190.5 341,190.3 Z" id="Shape"></path>
                    <path d="M330.4,189.8 C333.6,189.1 336.7,188.2 339.3,186.2 C341.4,184.5 342.2,183.1 345.1,182 C347.6,181 350.5,181 353.2,180.9 C357.8,180.8 362.5,181.4 366.9,182.8 C370.6,184 372.7,185 374.5,188.5 C375.5,190.5 376.1,192.9 376.9,195 C377.6,196.8 380.5,196 379.8,194.2 C378.5,190.6 377.6,184.9 374.3,182.6 C370.6,179.9 364.8,178.9 360.4,178.3 C355.3,177.6 349.4,177.5 344.4,179.1 C342.2,179.8 340.8,181 339.1,182.4 C336.2,184.9 333.4,186 329.7,186.9 C327.7,187.3 328.5,190.2 330.4,189.8 Z" id="Shape"></path>
                    <path d="M327,195.6 C333.2,195.6 337.8,199.6 342.8,202.6 C347.4,205.3 352.2,206.5 357.5,207.1 C363.5,207.7 368.5,208 373.5,204.4 C376.6,202.2 379.4,199.9 379.6,196 C379.7,194.1 376.7,194.1 376.6,196 C376.1,202.8 365.9,204.7 360.9,204.4 C355.5,204 350.3,203.3 345.5,200.7 C339.4,197.4 334.3,192.5 326.9,192.6 C325.1,192.6 325.1,195.6 327,195.6 Z" id="Shape"></path>
                    <path d="M363.8,116.9 C370.4,114.1 377.6,110.3 384.9,112 C384.5,111.5 384.2,111 383.8,110.6 C383.9,111.2 383.9,111.9 384,112.5 C384.2,114.4 387.2,114.4 387,112.5 C386.9,111.9 386.9,111.2 386.8,110.6 C386.7,110 386.4,109.3 385.7,109.2 C377.4,107.2 369.7,111.2 362.2,114.4 C360.6,115.1 362.1,117.7 363.8,116.9 Z" id="Shape"></path>
                    <path d="M365,119.1 C371.8,117.3 378,125 384.7,121.8 C389.8,119.3 388.7,113.2 387.2,108.8 C386.6,107 383.7,107.8 384.3,109.6 C385,111.7 386,114.3 385.4,116.5 C384.2,121 379,119.5 375.9,118.3 C371.9,116.7 368.4,115.2 364.1,116.3 C362.3,116.7 363.1,119.6 365,119.1 Z" id="Shape"></path>
                    <path d="M377,110 C377,113.5 377,117 377,120.5 C377,122.4 380,122.4 380,120.5 C380,117 380,113.5 380,110 C380,108.1 377,108.1 377,110 Z" id="Shape"></path>
                    <path d="M317.6,112.6 C317.1,109.6 316.6,106.6 316.1,103.6 C315.8,101.7 312.9,102.5 313.2,104.4 C313.7,107.4 314.2,110.4 314.7,113.4 C315.1,115.3 317.9,114.5 317.6,112.6 Z" id="Shape"></path>
                    <path d="M292.2,107.1 C295.1,107.6 297.4,107 300,105.5 C304.6,102.8 308.5,100.5 313.7,103.5 C315.4,104.5 316.9,101.9 315.2,100.9 C312.3,99.2 309,98.5 305.7,99.2 C301.3,100.2 297.8,105 293.1,104.2 C291.1,103.9 290.3,106.7 292.2,107.1 Z" id="Shape"></path>
                    <path d="M292,110.6 C297,110.1 302,110.3 306.9,111.5 C310.4,112.4 313.8,114.1 317.5,114.4 C322.4,114.7 327.4,111 325.7,105.7 C325.1,103.9 322.2,104.6 322.8,106.5 C321.3,108.2 319.8,109.8 318.2,111.5 C317.3,111.4 316.4,111.2 315.5,111.1 C314.5,110.9 313.5,110.5 312.4,110.1 C310,109.3 307.6,108.6 305.1,108.1 C300.7,107.3 296.3,107.2 291.9,107.6 C290.1,107.8 290.1,110.8 292,110.6 Z" id="Shape"></path>
                    <path d="M293.5,97.1 C293.4,96.9 293.4,97.1 293.5,97.2 C293.5,97.3 293.5,97.3 293.5,97.2 C293.5,97.1 293.5,97.1 293.5,97.3 C293.6,97.1 293.6,97.3 293.5,97.3 C293.3,97.4 293.3,97.4 293.1,97.4 C293.9,97.3 294.6,96.8 294.6,95.9 C294.6,95.2 293.9,94.3 293.1,94.4 C292.2,94.5 291.5,94.9 291,95.6 C290.6,96.2 290.5,97.1 290.7,97.8 C291,98.6 291.7,99.1 292.5,98.8 C293.2,98.7 293.8,97.8 293.5,97.1 Z" id="Shape"></path>
                    <path d="M294,97.7 C305.3,93.7 317.8,95.8 327,103.5 C328.5,104.7 330.6,102.6 329.1,101.4 C319.1,93 305.5,90.4 293.2,94.8 C291.4,95.4 292.2,98.3 294,97.7 Z" id="Shape"></path>
                    <path d="M326.6,102.1 C326.2,103.7 326.4,105.3 327.1,106.8 C327.4,107.5 328.5,107.7 329.2,107.3 C330,106.9 330.1,106 329.7,105.2 C329.4,104.5 329.3,103.6 329.5,102.8 C329.9,101 327,100.2 326.6,102.1 Z" id="Shape"></path>
                    <path d="M360,107.6 C359.2,104 362.7,101.2 364.6,98.6 C366.3,96.4 367.5,93.9 368.5,91.3 C369.2,89.5 366.3,88.7 365.6,90.5 C364.1,94.4 361.6,97.2 359.2,100.5 C357.4,102.9 356.4,105.3 357,108.3 C357.6,110.2 360.5,109.5 360,107.6 Z" id="Shape"></path>
                    <path d="M355.3,108.9 C356.8,113.2 360.4,116.3 363.1,119.9 C366.3,124.3 369,129.1 371,134.2 C373.1,139.4 377.7,148.2 369.8,150.7 C367.2,151.5 365.2,151.4 364.4,154.5 C363.9,156.4 366.8,157.2 367.3,155.3 C367.9,153.3 372.7,153.8 374.3,152.9 C375.6,152.2 376.5,151 377,149.7 C378.4,146 376.7,141.4 375.5,137.9 C373.9,133.1 371.8,128.4 369.2,124 C367.8,121.6 366.2,119.2 364.5,117 C362.4,114.2 359.3,111.5 358.2,108.2 C357.6,106.3 354.7,107.1 355.3,108.9 Z" id="Shape"></path>
                    <path d="M357.3,149.2 C356.2,154.3 357.1,160.8 362.9,162.5 C368.7,164.1 371.4,158.6 372.4,154 C372.8,152.1 369.9,151.3 369.5,153.2 C368.9,156.1 367.7,160.7 363.7,159.6 C359.5,158.4 359.4,153.5 360.2,150 C360.6,148.1 357.7,147.3 357.3,149.2 Z" id="Shape"></path>
                    <path d="M353.8,151.3 C352.8,152 351.6,152.8 350.4,152.9 C349.3,153 347.9,152.4 348.4,151.1 C348.8,150.1 350.1,149.6 351.1,149.4 C351.7,149.2 353.8,148.6 354.2,149.3 C355.2,150.9 357.8,149.4 356.8,147.8 C355.5,145.7 353,146 350.8,146.4 C348.6,146.9 346.2,148 345.5,150.4 C344.8,152.6 345.9,154.7 347.9,155.6 C350.5,156.7 353.1,155.4 355.3,154 C356.9,152.9 355.4,150.3 353.8,151.3 Z" id="Shape"></path>
                    <path d="M344.5,159 C342,156.8 338.2,155.7 336.5,152.7 C334,148.4 336.1,143.6 338.4,139.8 C339.4,138.2 336.8,136.7 335.8,138.3 C333.3,142.2 331.5,146.8 332.8,151.5 C334.2,156.9 338.7,157.7 342.4,161.1 C343.8,162.4 345.9,160.3 344.5,159 Z" id="Shape"></path>
                    <path d="M214.4,113.3 C211.5,112.4 209.8,109.4 207.4,107.6 C205.9,106.4 204.2,105.5 202.4,104.8 C198.3,103.2 193.9,103 189.6,104 C187.7,104.4 188.5,107.3 190.4,106.9 C195.7,105.7 201.1,106.7 205.4,109.9 C208.3,112.1 210,115.1 213.6,116.2 C215.5,116.8 216.2,113.9 214.4,113.3 Z" id="Shape"></path>
                    <path d="M188.9,104.3 C181.4,107.7 171.6,113.4 173.2,123.2 C173.6,125.4 174.7,127.3 175.5,129.4 C176.6,132.1 177,134.7 177.5,137.6 C178.4,143.3 180.5,148.4 183.1,153.5 C187.7,162.4 193,173.5 201.5,179.4 C204,181.1 207.4,182.3 209.9,179.9 C212.3,177.6 211.8,173.9 211.3,171 C211,169.1 208.1,169.9 208.4,171.8 C208.7,173 208.8,174.2 208.7,175.4 C206.6,175.7 204.5,176.1 202.4,176.4 C201.2,176 199.8,173.9 198.9,172.9 C196.4,170.1 194.3,167.1 192.3,163.9 C188.4,157.5 184.3,150.6 182,143.5 C180.9,140.3 180.6,137.1 180,133.8 C179.4,130.8 178.2,128.4 177.1,125.5 C173.4,115.7 182.9,110.5 190.4,107 C192.2,106.1 190.7,103.5 188.9,104.3 Z" id="Shape"></path>
                    <path d="M210.6,136.1 C210.4,137.4 210.2,138.8 210,140.1 C209.9,140.9 210.2,141.7 211,141.9 C211.7,142.1 212.7,141.7 212.8,140.9 C213,139.6 213.2,138.2 213.4,136.9 C213.5,136.1 213.2,135.3 212.4,135.1 C211.7,134.9 210.7,135.3 210.6,136.1 Z" id="Shape"></path>
                    <path d="M216.9,150.1 C216,147.6 214.7,145.5 213,143.4 C211.8,141.9 209.7,144 210.9,145.5 C212.2,147.1 213.3,148.9 214,150.8 C214.7,152.7 217.6,151.9 216.9,150.1 Z" id="Shape"></path>
                    <path d="M208.3,137.7 C208.2,137.9 208.2,137.9 208.3,137.7 C208.5,137.7 208.5,137.7 208.3,137.7 C208.3,137.7 208.4,137.7 208.3,137.7 C208.5,137.8 208.5,137.8 208.3,137.7 C208.2,137.6 208,137.5 208,137.5 C207.6,136.9 207.7,136.1 207.7,135.4 C207.7,133.5 204.7,133.5 204.7,135.4 C204.7,137 204.8,138.9 206.2,139.9 C207.4,140.9 209.3,141 210.5,139.8 C211.8,138.5 209.7,136.3 208.3,137.7 Z" id="Shape"></path>
                    <path d="M207.4,134 C207.5,129.4 205.2,125.9 203.7,121.7 C202.4,118.4 202.8,114.4 199.6,112.1 C195.2,108.9 187.3,109.6 184.4,114.4 C183.4,116.1 186,117.6 187,115.9 C188.6,113.2 192.1,112.8 194.9,113.4 C198.7,114.2 199.2,116.5 199.9,119.7 C201.1,124.6 204.5,128.7 204.4,133.9 C204.4,135.9 207.4,135.9 207.4,134 Z" id="Shape"></path>
                    <path d="M184.5,115 C183.5,116 182.5,117 181.5,118 C180.1,119.4 182.2,121.5 183.6,120.1 C184.6,119.1 185.6,118.1 186.6,117.1 C188,115.8 185.9,113.6 184.5,115 Z" id="Shape"></path>
                    <path d="M183,134 C184.9,134 184.9,131 183,131 C181.1,131 181.1,134 183,134 Z" id="Shape"></path>
                    <path d="M180.5,120.5 C180.5,123.7 180.5,126.8 180.5,130 C180.5,131.9 183.5,131.9 183.5,130 C183.5,126.8 183.5,123.7 183.5,120.5 C183.5,118.6 180.5,118.6 180.5,120.5 Z" id="Shape"></path>
                    <path d="M182,132.5 C183.9,132.5 183.9,129.5 182,129.5 C180.1,129.5 180.1,132.5 182,132.5 Z" id="Shape"></path>
                    <path d="M191,117.5 C191.2,118.9 190.9,120.1 190.2,121.2 C189.2,122.8 191.8,124.3 192.8,122.7 C193.8,121.1 194.2,119.3 194,117.4 C193.9,116.6 193.4,115.9 192.5,115.9 C191.8,116 190.9,116.7 191,117.5 Z" id="Shape"></path>
                    <path d="M189.5,121.3 C184.6,133 182.2,145.5 192.8,154.8 C194.2,156.1 196.4,154 194.9,152.7 C185.1,144.2 187.9,132.7 192.4,122.2 C193.1,120.3 190.2,119.5 189.5,121.3 Z" id="Shape"></path>
                    <path d="M202.5,129.9 C200.1,130 198,132 198.1,134.5 C198.1,136.4 201.1,136.4 201.1,134.5 C201.1,134.1 201.2,133.8 201.5,133.4 C201.7,133.2 201.7,133.2 202,133 C202.2,132.9 202.4,132.9 202.5,132.9 C204.4,132.9 204.4,129.9 202.5,129.9 Z" id="Shape"></path>
                    <path d="M197,145.5 C197,143 197,140.5 197,138 C197,136.1 194,136.1 194,138 C194,140.5 194,143 194,145.5 C194,147.4 197,147.4 197,145.5 Z" id="Shape"></path>
                    <path d="M196.3,140.4 C196.6,138.8 197.2,137.3 197.9,135.8 C198.8,134.1 196.2,132.6 195.3,134.3 C194.4,136 193.8,137.7 193.4,139.6 C193,141.5 195.9,142.3 196.3,140.4 Z" id="Shape"></path>
                    <path d="M194.8,149.8 C200,149.1 205.6,148.5 210.2,151.6 C211.8,152.7 213.3,150.1 211.7,149 C206.4,145.5 200,146.1 194,146.9 C192.1,147.1 193,150 194.8,149.8 Z" id="Shape"></path>
                    <path d="M221.3,148.9 C222,144.6 222.6,140.2 223.3,135.9 C223.6,134 220.7,133.2 220.4,135.1 C219.7,139.4 219.1,143.8 218.4,148.1 C218.1,150 221,150.8 221.3,148.9 Z" id="Shape"></path>
                    <path d="M222,137 C223.9,137 223.9,134 222,134 C220.1,134 220.1,137 222,137 Z" id="Shape"></path>
                    <path d="M216,116 C217.9,116 217.9,113 216,113 C214.1,113 214.1,116 216,116 Z" id="Shape"></path>
                    <path d="M214.5,115.4 C217.6,122.1 219.7,129.1 220.8,136.4 C221.1,138.3 224,137.5 223.7,135.6 C222.5,128 220.3,120.8 217.1,113.9 C216.3,112.1 213.7,113.6 214.5,115.4 Z" id="Shape"></path>
                    <path d="M201.5,102.5 C202,97.8 200.4,92.6 202,88.1 C203.6,83.6 207.4,79.4 210.1,75.5 C211.2,73.9 208.6,72.4 207.5,74 C204.7,78.2 200.7,82.5 199.1,87.3 C197.5,92.2 199,97.5 198.5,102.5 C198.3,104.4 201.3,104.4 201.5,102.5 Z" id="Shape"></path>
                    <path d="M217.3,67.8 C220.7,61.7 226.9,60.2 232.2,56.4 C237.7,52.5 244,50.5 250.1,47.7 C262.7,42 272.3,27.1 287.2,28.2 C289.1,28.3 289.1,25.3 287.2,25.2 C271.4,24.1 261.7,39.2 248.5,45.1 C245,46.7 241.3,48 237.8,49.6 C234.4,51.2 231.7,53.3 228.6,55.3 C225.7,57.2 222.4,57.9 219.7,60.1 C217.6,61.8 216,63.8 214.7,66.2 C213.8,68 216.4,69.5 217.3,67.8 Z" id="Shape"></path>
                    <path d="M4,360 C4,359.8 4,359.7 4,359.5 C4,358.7 3.3,358 2.5,358 C1.7,358 1,358.7 1,359.5 C1,359.7 1,359.8 1,360 C1,360.8 1.7,361.5 2.5,361.5 C3.3,361.5 4,360.8 4,360 Z" id="Shape"></path>
                    <path d="M3.9,357.9 C3.8,345.9 13.1,337.6 22.5,331.6 C27,328.7 31.6,326.1 35.9,323 C39.9,320.2 43.5,316.7 47.8,314.5 C52.3,312.2 57.3,311.2 61.9,309.3 C65.9,307.6 69.8,305.6 73.7,303.6 C82.9,298.8 92.3,294.1 102.9,294.7 C104.8,294.8 104.8,291.8 102.9,291.7 C92.6,291.1 83.3,295.3 74.3,299.9 C69,302.6 63.7,305.5 58.1,307.5 C53.1,309.3 48,310.6 43.4,313.5 C38.7,316.5 34.6,320.3 29.8,323.3 C24.8,326.5 19.6,329.4 14.8,333.1 C6.9,339.2 0.6,347.6 0.7,357.9 C0.9,359.9 3.9,359.9 3.9,357.9 Z" id="Shape"></path>
                    <path d="M104,295 C107.7,294.8 111.5,294.5 115.1,293.5 C119,292.3 122.4,290 126.4,289.1 C130.2,288.2 134.2,288.3 137.9,286.9 C141.3,285.7 144.2,283.6 147.1,281.6 C148.7,280.5 147.2,277.9 145.6,279 C142.7,281 139.8,283.2 136.4,284.3 C132.9,285.4 129.2,285.4 125.6,286.2 C122.6,286.9 120.1,288.2 117.3,289.4 C113,291.2 108.7,291.6 104.1,291.9 C102.1,292.1 102.1,295.1 104,295 Z" id="Shape"></path>
                    <path d="M290.5,14.3 C279.1,14.7 268.1,14.7 256.9,12.8 C246.4,11 236.1,10.5 225.5,11.7 C223.6,11.9 223.6,14.9 225.5,14.7 C237.3,13.3 248.3,14.5 260,16.3 C270.1,17.9 280.3,17.6 290.5,17.2 C292.4,17.3 292.4,14.3 290.5,14.3 Z" id="Shape"></path>
                    <path d="M198.9,40.9 C199.6,36.3 200.6,30.4 203.5,26.5 C206.1,23.1 210.4,22.2 213.8,19.7 C215.3,18.6 213.8,16 212.3,17.1 C208.7,19.8 203.9,20.8 201.1,24.6 C198,28.9 196.9,34.9 196.1,40 C195.7,42 198.6,42.8 198.9,40.9 Z" id="Shape"></path>
                    <path d="M293,14.4 C294.8,9.5 298.2,5.6 302.7,3.1 C304.4,2.2 302.9,-0.4 301.2,0.5 C296,3.4 292.1,7.9 290.1,13.6 C289.4,15.4 292.3,16.2 293,14.4 Z" id="Shape"></path>
                    <path d="M302.5,3.5 C304.4,3.5 304.4,0.5 302.5,0.5 C300.6,0.5 300.6,3.5 302.5,3.5 Z" id="Shape"></path>
                    <path d="M216.7,153.6 C214.8,163.5 219.8,172 225.9,179.4 C226.4,178.6 226.9,177.7 227.4,176.9 C221.9,174.8 215.6,178.9 216.9,185.1 C218.2,191.6 226,192.2 231.3,191.4 C232.4,191.2 232.5,190 232.2,189.2 C230.5,185.4 225.3,185 222.3,187.6 C218.4,191 220.3,197.1 223.4,200.5 C226.6,204 232.8,206.8 237.2,203.6 C240.7,201.1 241.3,195.7 237.9,193 C237,192.2 235.8,192.6 235.4,193.7 C232.1,202 230.5,210.5 230.5,219.4 C230.5,220.4 231.5,221.1 232.4,220.8 C235.3,220 237,218.3 238,215.5 C238.2,214.9 237.9,214.1 237.3,213.8 C234,212 230.8,210.3 227.5,208.5 C224.9,207.1 222.7,205.2 221.9,202 C221.5,200.6 222,198.5 221.8,197 C221.3,192.7 219.4,189 215.8,186.5 C215.1,186 213.8,186.5 213.6,187.4 C211.1,201.8 217.7,216.3 230.3,223.8 C231,224.2 231.9,224 232.4,223.3 C236.9,215.7 227.2,212.2 221.4,211.7 C220.7,211.7 220.1,212.2 220,212.8 C218.8,217 219,220.9 220.6,225 C221.2,226.5 223.5,226.4 223.5,224.6 C223.5,219.8 222.6,215.5 220.6,211.2 C220.1,210.2 218.5,210.3 218,211.2 C213.3,219.7 215.5,231.2 223.5,237 C226.9,239.5 229.6,239.4 230,244.5 C230.2,247 230,248.8 231.6,250.9 C235.1,255.3 241.2,254.5 246.1,253.6 C245.5,253.1 244.8,252.6 244.2,252.2 C243.6,261.3 253.7,265.8 260.2,259.6 C260.8,259.1 260.8,258 260.2,257.5 C252.3,250.2 243.6,242.7 232.3,243 C231.2,243 230.4,244.3 231,245.3 C233.2,248.7 239.2,255 244,253.1 C245.8,252.4 246.1,250.6 246.4,248.9 C247.1,244.8 247,240.4 247,236.3 C247,230.5 247,223.1 241.8,219.4 C238.2,216.8 233.3,216.6 230.1,219.9 C229.7,220.3 229.6,220.9 229.7,221.4 C232.4,230 242,233.6 246.4,241.3 C251.1,249.4 253.1,258.6 259.6,265.5 C260.9,266.9 263,264.8 261.7,263.4 C256.4,257.8 254.2,250.4 250.9,243.6 C247.8,237 243.7,233 238.3,228.3 C236.2,226.5 230.1,220.8 236.2,220.4 C242.6,220.1 243.8,228.6 243.9,233.1 C244,237.2 243.9,241.3 243.6,245.4 C243.4,248.8 243.8,251.5 239.5,249.4 C236.9,248.2 235,246.2 233.5,243.9 C233.1,244.7 232.6,245.4 232.2,246.2 C242.7,246 250.8,253.1 258,259.8 C258,259.1 258,258.4 258,257.7 C253.3,262.1 246.7,258.5 247.1,252.4 C247.2,251.4 246.1,250.8 245.2,251 C242.6,251.5 237.9,252.6 235.6,250.7 C232.3,248 233.5,244.9 232.8,241.6 C232.2,238.5 229.8,237.5 227.2,236.1 C219.1,231.6 216,221.1 220.5,213 C219.6,213 218.8,213 217.9,213 C219.6,216.8 220.4,220.7 220.3,224.9 C221.3,224.8 222.3,224.6 223.2,224.5 C221.8,220.9 221.6,217.6 222.6,213.9 C222.1,214.3 221.6,214.6 221.2,215 C224.2,215.2 232.9,216.6 229.6,222 C230.3,221.8 231,221.6 231.7,221.5 C220.4,214.7 214.2,201.5 216.4,188.5 C215.7,188.8 214.9,189.1 214.2,189.4 C217.5,191.7 218.7,195.4 218.9,199.3 C219,202 218.4,204.6 220,207.1 C221.2,209 223.2,210 225.1,211 C228.6,212.9 232.2,214.8 235.7,216.7 C235.5,216.1 235.2,215.6 235,215 C233.8,216.1 232.7,217.1 231.5,218.2 C232.1,218.7 232.8,219.2 233.4,219.6 C233.4,210.9 235,202.7 238.2,194.7 C237.4,194.9 236.5,195.1 235.7,195.4 C238.7,197.9 236.2,201.9 232.9,202.2 C230.7,202.4 228.1,201 226.5,199.6 C225,198.3 222.5,195.4 223.1,193.2 C223.7,190.8 227.6,186.5 229.6,190.9 C229.9,190.2 230.2,189.4 230.5,188.7 C228.3,189 225.7,189.2 223.6,188.4 C217.2,186 220.6,177.7 226.6,179.9 C228.1,180.5 228.9,178.4 228.1,177.4 C222.7,171 218,163.2 219.7,154.5 C220,152.6 217.1,151.7 216.7,153.6 Z" id="Shape"></path>
                    <path d="M246.2,263.9 C252.5,266.8 259.1,268.4 266,268.5 C267.9,268.5 267.9,265.5 266,265.5 C259.6,265.3 253.5,264 247.7,261.3 C246,260.5 244.5,263.1 246.2,263.9 Z" id="Shape"></path>
                    <path d="M267,266.4 C264.4,272.1 269.2,278.3 275.4,276.8 C277.3,276.4 276.5,273.5 274.6,273.9 C271.1,274.7 268.1,271.2 269.6,267.9 C270.3,266.1 267.8,264.6 267,266.4 Z" id="Shape"></path>
                    <path d="M270.7,276.7 C272.3,280 274.9,283.6 278.9,284 C281.4,284.2 284.2,282.7 284.8,280.1 C285.9,275.3 278.1,272.8 277.3,278.1 C276.7,281.6 280.5,284.9 282.6,287.1 C285.9,290.6 289.7,293.9 294,296.3 C303.9,301.9 313.5,300.6 323.9,297.4 C325.7,296.8 325,293.9 323.1,294.5 C313.5,297.5 304.7,298.9 295.5,293.7 C291.9,291.7 288.8,289 285.9,286.2 C284.4,284.7 282.8,281.9 281.1,280.8 C278.3,281.3 276.2,280.3 274.8,277.8 C274.3,277 273.8,276.2 273.4,275.3 C272.5,273.4 269.9,274.9 270.7,276.7 Z" id="Shape"></path>
                    <path d="M324,294.6 C321.8,294.4 319.6,294 317.5,293.3 C315.4,292.5 313.9,291.2 311.9,290.3 C309.3,289.1 307.7,291.1 307.4,293.6 C306.5,300.8 314.1,304 319.6,305.7 C321.5,306.3 322.2,303.4 320.4,302.8 C317.8,302 314.9,301.2 312.8,299.4 C311.7,298.4 308.7,293.9 311,293.3 C311.4,293.2 314,295 314.5,295.3 C315.2,295.6 316,295.9 316.7,296.2 C319,297 321.5,297.5 324,297.6 C325.9,297.8 325.9,294.8 324,294.6 Z" id="Shape"></path>
                    <path d="M321.5,302.1 C325.5,302.3 329.7,302.7 333.7,302.7 C335.6,302.7 337.8,302.3 338.8,300.5 C341.3,295.8 333,290.8 329.8,289 C329.1,288.6 328.2,288.8 327.7,289.5 C326,292.2 328.7,295 330.5,296.9 C333.2,299.8 336.5,301.8 340.1,303.3 C341.9,304 342.7,301.1 340.9,300.4 C338.5,299.4 336.2,298.1 334.3,296.4 C333.4,295.6 329.5,292.3 330.3,291 C329.6,291.2 328.9,291.4 328.2,291.5 C329.8,292.4 331.4,293.4 332.8,294.6 C334.4,296 337.8,298.6 333.7,299.6 C332.1,300 329.8,299.4 328.1,299.4 C325.9,299.3 323.7,299.2 321.5,299.1 C319.6,299 319.6,302 321.5,302.1 Z" id="Shape"></path>
                    <path d="M336.5,291.5 C336.5,293.5 337.8,295.2 339.7,295.9 C340.5,296.2 341.3,295.6 341.5,294.9 C341.7,294.1 341.2,293.3 340.5,293.1 C340.4,293 340,292.7 339.9,292.6 C339.6,292.2 339.6,292.1 339.6,291.6 C339.4,289.6 336.4,289.6 336.5,291.5 Z" id="Shape"></path>
                    <path d="M343,296 C344.9,296 344.9,293 343,293 C341.1,293 341.1,296 343,296 Z" id="Shape"></path>
                    <path d="M351.6,296 C362.1,298.3 372.7,299.4 383.5,299.4 C385.4,299.4 385.4,296.4 383.5,296.4 C373,296.4 362.6,295.3 352.4,293.1 C350.5,292.7 349.7,295.6 351.6,296 Z" id="Shape"></path>
                    <path d="M357,300 C362.3,299.7 368.7,299.8 373.8,298.1 C377.5,296.9 378,293.5 377.8,290 C377.7,288.1 374.7,288.1 374.8,290 C374.9,292 375.1,294.1 373,295.2 C371.6,296 369,295.9 367.4,296.1 C363.9,296.5 360.5,296.8 357,297 C355.1,297.1 355.1,300.1 357,300 Z" id="Shape"></path>
                    <path d="M375,278 C375,278.2 375,278.3 375,278.5 C375,279.3 375.7,280 376.5,280 C377.3,280 378,279.3 378,278.5 C378,278.3 378,278.2 378,278 C378,277.2 377.3,276.5 376.5,276.5 C375.7,276.5 375,277.2 375,278 Z" id="Shape"></path>
                    <path d="M397.5,195.5 C399.3,181 400.3,166.3 399.5,151.7 C398.7,137.7 396,123.9 393.3,110.2 C392.9,108.3 390,109.1 390.4,111 C393.3,125.1 396,139.2 396.6,153.6 C397.2,167.6 396.2,181.6 394.5,195.5 C394.3,197.4 397.3,197.4 397.5,195.5 Z" id="Shape"></path>
                    <path d="M392.5,98 C394.4,98 394.4,95 392.5,95 C390.6,95 390.6,98 392.5,98 Z" id="Shape"></path>
                    <path d="M398.2,146.6 C397.5,143.3 396.9,140 396.2,136.7 C395.8,134.8 392.9,135.6 393.3,137.5 C394,140.8 394.6,144.1 395.3,147.4 C395.6,149.2 398.5,148.4 398.2,146.6 Z" id="Shape"></path>
                    <path d="M256.6,13.5 C240.7,16.5 226.3,24.5 215.3,36.3 C214,37.7 216.1,39.8 217.4,38.4 C228.1,26.9 241.9,19.3 257.3,16.3 C259.3,16.1 258.5,13.2 256.6,13.5 Z" id="Shape"></path>
                    <path d="M211.9,34.8 C199.3,45.8 188.2,58.6 179.2,72.8 C174.5,80.2 170.2,87.9 167.4,96.2 C164.6,104.3 163.7,112.9 163.2,121.4 C162.1,139.8 161,158.7 166.4,176.6 C171.4,192.9 180.9,208.4 182,225.7 C182.2,228.3 182.1,231 181.8,233.6 C181.5,236.5 180.4,245.5 174.2,241.3 C170.4,238.7 169,230.9 167.9,226.7 C165,215.8 164.9,204.5 167.3,193.4 C166.4,193.5 165.5,193.6 164.6,193.8 C170.8,205.4 177.8,218.2 176.8,231.7 C176,243 168.6,255 156.7,256.5 C155.5,256.7 154.6,258.1 155.6,259.1 C166,269 171.5,282.6 171,297 C171,298.3 172.7,299 173.6,298.1 C176.4,294.9 181,294.8 184.4,297.1 C187.9,299.5 189.1,303.9 189,307.9 C188.9,313.2 184.3,319.2 187.3,324.3 C188.3,326.1 190.2,327.2 191.8,328.3 C195.1,330.6 197.8,332.9 199.9,336.5 C203.6,342.6 204.4,349.9 202.4,356.7 C201.9,358.6 204.8,359.4 205.3,357.5 C207.4,350.4 206.6,342.8 203.1,336.2 C201.3,332.8 198.8,329.8 195.8,327.5 C194.4,326.4 192.4,325.6 191.2,324.2 C188.4,321.1 189.9,317.7 190.9,314.2 C192.7,307.9 192.4,299.8 186.9,295.3 C182.3,291.6 175.3,291.4 171.3,295.9 C172.2,296.3 173,296.6 173.9,297 C174.5,281.9 168.6,267.4 157.7,257 C157.3,257.9 157,258.7 156.6,259.6 C168.7,258.1 176.8,247.8 179.1,236.3 C182.2,220.8 174.1,205.6 167,192.4 C166.4,191.3 164.5,191.5 164.3,192.8 C162.3,202 162,211.4 163.5,220.8 C164.6,228 166.6,239.1 172.5,244 C177.4,248.1 182.3,244.1 183.8,239 C186.1,231.1 184.9,222.1 182.9,214.3 C177.8,194.4 167,176.9 165.5,156 C164.7,145.2 165.3,134.3 165.9,123.5 C166.5,112.2 167.9,101.3 172.6,90.9 C181.9,70.3 196.9,52.1 213.8,37.3 C215.4,35.7 213.3,33.6 211.9,34.8 Z" id="Shape"></path>
                    <path d="M208.6,183 C206.8,198.3 214,213 214.9,228.1 C215.9,244 213.3,259.9 210.7,275.5 C210.4,277.4 213.3,278.2 213.6,276.3 C216.1,261 218.7,245.5 218,229.9 C217.7,222.5 216.5,215.4 214.7,208.2 C212.7,199.8 210.6,191.6 211.6,182.9 C211.8,181.1 208.8,181.1 208.6,183 Z" id="Shape"></path>
                </g>
                <g id="Layer_1" transform="translate(101.000000, 0.000000)">
                    <path d="M135.1,111.3 C141.5,108.6 148.3,105.7 153.2,100.6 C155.3,98.5 156.9,96 157.9,93.2 C159.9,87.7 160.2,81.9 167.1,80.5 C168.1,80.3 168.4,79.1 168,78.3 C165.4,72.5 164.5,66.5 165.2,60.2 C164.4,60.6 163.7,61.1 162.9,61.5 C174,67.4 185.8,60.7 193.8,52.7 C199.4,47.1 204.2,40.4 211,36 C217.3,31.9 224.9,30.2 232.3,30.6 C248.8,31.6 258.9,44.1 268.8,55.9 C279,68 288.3,81.8 288.8,98.1 C289.6,97.7 290.3,97.2 291.1,96.8 C279.5,91.7 265.7,97.5 261.1,109.3 C260.7,110.4 261.9,111.4 262.9,111.1 C274,108 285.2,108.6 296,112.7 C297.2,113.2 298.4,111.5 297.7,110.5 C294.6,105.7 291.5,100.8 288.5,96 C287.5,94.4 284.9,95.9 285.9,97.5 C289,102.3 292.1,107.2 295.1,112 C295.7,111.3 296.2,110.5 296.8,109.8 C285.6,105.5 273.7,105 262.2,108.2 C262.8,108.8 263.4,109.4 264,110 C267.8,100.1 279.8,95 289.5,99.3 C290.5,99.7 291.8,99.3 291.8,98 C291.4,83.4 284.3,70.7 275.5,59.4 C266.8,48.2 256.7,34.4 242.9,29.6 C230.4,25.3 216.2,27.6 205.9,35.9 C194.8,44.9 181.8,68.1 164.3,58.8 C163.2,58.2 162.2,59 162,60.1 C161.2,67 162.3,73.4 165.2,79.7 C165.5,79 165.8,78.2 166.1,77.5 C157.5,79.3 157.4,85.9 154.6,92.8 C151.2,101.1 141.9,105.1 134.1,108.3 C132.5,109.1 133.3,112 135.1,111.3 Z" id="Shape"></path>
                    <path d="M293.4,128.5 C293.6,125.7 293.8,122.8 294,120 C294.1,118.1 291.1,118.1 291,120 C290.8,122.8 290.6,125.7 290.4,128.5 C290.3,130.4 293.3,130.4 293.4,128.5 Z" id="Shape"></path>
                    <path d="M294.5,124.5 C294.5,121 294.5,117.5 294.5,114 C294.5,112.1 291.5,112.1 291.5,114 C291.5,117.5 291.5,121 291.5,124.5 C291.5,126.4 294.5,126.4 294.5,124.5 Z" id="Shape"></path>
                    <path d="M296.5,214.5 C296.5,215.5 296.5,216.5 296.5,217.5 C296.5,219.4 299.5,219.4 299.5,217.5 C299.5,216.5 299.5,215.5 299.5,214.5 C299.5,212.6 296.5,212.6 296.5,214.5 Z" id="Shape"></path>
                    <path d="M296.5,229.5 C296.8,229.2 297.1,229 297.4,228.7 C296.9,228.8 296.4,229 295.9,229.1 C298.1,229.4 298.7,231.7 297.5,233.4 C297,234.2 296.2,234.8 295.3,235.1 C294.4,235.4 292.2,235.6 292.6,233.9 C293,232 290.1,231.2 289.7,233.1 C289.1,235.6 290.8,237.9 293.4,238.3 C295.8,238.6 298.3,237.3 299.8,235.4 C301.3,233.4 301.6,230.8 300.3,228.7 C299.7,227.7 298.7,226.9 297.6,226.5 C296.1,226 295.4,226.5 294.3,227.4 C292.9,228.6 295,230.7 296.5,229.5 Z" id="Shape"></path>
                    <path d="M297,253 C298.9,253 298.9,250 297,250 C295.1,250 295.1,253 297,253 Z" id="Shape"></path>
                    <path d="M298,251.1 C299.1,246.6 298.2,235 290.4,239.3 C281.8,244.2 290.3,253 295.3,256.1 C296,256.6 296.9,256.2 297.4,255.6 C300.7,251 308,240.3 304,234.4 C301.4,230.5 295.1,232.2 297,237.1 C297.4,238.1 298.3,238.4 299.2,238 C307.9,234.1 306.7,222.4 297.9,219.7 C296.9,219.4 296.1,220.2 296,221.1 C295,230.7 293.9,240.3 292.9,250 C292.3,255.7 291.6,262.3 296.6,266.3 C297.2,265.5 297.8,264.7 298.4,263.9 C295.3,261.9 290.1,258.5 286.2,258.7 C283,258.9 282.7,262.1 282.3,264.7 C281.3,271.9 283.5,280.6 292,281 C292.8,281 293.5,280.3 293.5,279.5 C293.5,275.9 292.9,271.3 288.9,270.1 C286.3,269.3 283.9,270.6 282.9,273.1 C279.1,282.4 294.8,285.8 300.7,285.8 C301.6,285.8 302.5,284.8 302.1,283.9 C300.3,279.6 291,267.3 287.2,276.5 C285.4,281 285.7,286.9 286.4,291.5 C286.9,294.9 287.5,301.1 291.8,301.7 C292.5,301.8 293.1,301.6 293.5,301 C293.6,300.8 293.8,300.6 293.9,300.4 C294.9,299 292.7,297.4 291.5,298.6 C287.5,302.6 283.6,306.6 279.6,310.6 C277.4,312.8 273.7,315.2 274.4,318.8 C275.6,324.8 283.6,328.8 288.9,329.9 C289.9,330.1 290.8,329.5 290.8,328.5 C291.4,315.4 278.8,306.3 266.6,311.3 C265.7,311.7 265,313 265.9,313.8 C276,322.5 290.9,317.5 293.8,304.3 C296.5,292 284.5,281.2 272.5,282.5 C266.1,283.2 265.5,287.9 266.2,293.5 C266.8,298.3 269.5,303.5 275.1,302.9 C280.7,302.3 284,296.8 283.7,291.6 C283.3,284.9 278.5,277.5 273.1,273.7 C267.9,270 260.7,270.2 257,275.9 C253.3,281.5 256.1,288.7 262.1,291.2 C263.1,291.6 264.4,291.2 264.4,289.9 C264.3,282.5 262.6,274.2 257.8,268.4 C254.8,264.7 249.4,262.1 245.1,265.2 C241.5,267.8 241.6,272.7 243.9,276.2 C247.5,281.6 254.7,281.5 260.4,281.1 C261.4,281 262.1,280.2 261.8,279.2 C260.5,273.3 257.9,267 251.5,265.2 C246.6,263.8 241.4,266.4 240.6,271.7 C239,282.4 256.1,283.2 255.3,272.8 C254.9,267.4 249.7,264 244.7,263.6 C241.8,263.4 230.7,263.3 232.7,268.8 C234,272.5 241.9,277 245.7,275.6 C250.4,273.9 248.6,267.1 247.1,263.8 C245.1,259.2 239.1,254.2 234.2,258.4 C228.3,263.5 235.6,269.9 240,272.4 C241.4,273.2 243.1,271.2 241.8,270 C238.2,266.8 229.6,260.2 224.3,262.7 C219.1,265.2 223,273.6 225.8,276.3 C228.3,278.8 234.5,281 233.7,274.9 C232.8,268.3 221.2,267 216.3,267.1 C215,267.1 214.3,268.7 215.2,269.7 C218.8,273.3 223.3,274.5 228.2,273.4 C229.4,273.1 229.7,271.2 228.6,270.7 C222.9,267.7 217,266.8 210.6,267.9 C209.9,268 209.5,268.7 209.5,269.3 C209.3,274.2 212.3,278.2 217.1,279.3 C218.7,279.7 219.7,277.5 218.3,276.6 C211.6,272.5 204.9,268 198,264.4 C194.6,262.6 189.6,261.3 187.1,265.3 C184.6,269.2 188.1,274.6 190.9,277.3 C194.7,281.1 199.8,282.9 205.1,282.7 C206,282.7 206.9,281.8 206.5,280.8 C203.2,272.2 196.4,266 187.5,263.4 C186.8,263.2 185.8,263.6 185.7,264.4 C183.5,278.3 193.1,292.1 207.1,294.4 C208.2,294.6 209.2,293.7 208.9,292.6 C207.4,286.2 202.5,282 197,278.8 C193.3,276.7 187,272.6 182.6,275.4 C178.1,278.2 181.3,283.3 184.2,285.8 C189.8,290.6 197.3,293.5 204.5,294.4 C209.9,295.1 213.4,294.1 212.4,288.2 C211.3,281.9 209.1,274.6 204.5,270 C199.4,264.8 191.7,264.3 185.7,260.3 C182.3,258.1 176.5,252.9 177,248.3 C177.8,241.2 184.6,247.7 186.2,249.5 C188,251.5 189.4,253.7 190.7,256.1 C191,255.4 191.3,254.6 191.6,253.9 C183.7,255.6 176.4,247.1 172.4,241.3 C168.8,236.1 166.4,230.1 165.3,223.9 C164.8,221.3 163.8,216.6 165,214 C167.9,207.4 180.4,218.2 172.4,220.9 C171.2,221.3 168.5,222.1 167.4,221.8 C166,220.4 164.6,219 163.3,217.6 C163.3,216.1 163.6,214.6 164.3,213.2 C165.1,211.6 166.2,210.2 167.6,209.2 C170.5,207.1 177.7,207.1 175.4,212.7 C174.7,214.5 177.6,215.3 178.3,213.5 C179.7,210.2 177.9,206.6 174.6,205.1 C170.3,203.1 165.8,206 163.2,209.4 C160.7,212.7 158.9,218.1 161.6,221.9 C164.3,225.6 169.4,225.1 173.3,223.9 C176.5,222.8 179.4,220.7 178.2,217 C176.9,213 173.1,208.6 168.7,208.4 C156.9,207.8 162.8,228.1 165,233.7 C169,243.8 179.6,259.7 192.4,257 C193.4,256.8 193.7,255.6 193.3,254.8 C190.8,250.3 187.2,244.8 182.2,243 C178.9,241.7 175.3,242.8 174.3,246.5 C171.7,255.9 184,264 191.1,266.7 C198.8,269.6 204.1,272.5 207.1,280.6 C208,283 209.7,286.8 209.5,289.3 C209,294.2 201.3,291.2 198.4,290.4 C194.8,289.3 191.4,287.7 188.3,285.6 C187.1,284.8 185.9,283.9 184.8,282.8 C185.6,281.2 186.4,279.7 187.2,278.1 C188.2,277.6 190.6,279.3 191.6,279.8 C197.7,282.8 204.2,286.8 205.9,293.8 C206.5,293.2 207.1,292.6 207.7,292 C195.5,290 186.4,278.1 188.4,265.7 C187.8,266 187.2,266.4 186.6,266.7 C194.4,268.9 200.5,274.4 203.5,282 C204,281.4 204.5,280.7 204.9,280.1 C201.4,280.2 198.1,279.5 195.2,277.5 C193.7,276.5 191.8,274.9 190.9,273.2 C189,270.8 190,268.5 194,266.3 C195.1,266.7 196,267.2 197,267.8 C203.7,271.5 210.2,275.7 216.7,279.6 C217.1,278.7 217.5,277.8 217.9,276.9 C214.3,276.1 212.4,273.4 212.5,269.8 C212.1,270.3 211.8,270.8 211.4,271.2 C216.9,270.3 222.1,271.1 227.1,273.7 C227.2,272.8 227.3,271.9 227.5,271 C223.6,271.9 220.2,270.9 217.4,268.1 C217,269 216.7,269.8 216.3,270.7 C219.7,270.7 224.1,270.9 227,272.8 C227.9,273.4 231,277 228.4,275.1 C226.9,274 225.8,272 225.3,270.3 C223,261.5 237.5,270.8 239.7,272.8 C240.3,272 240.9,271.2 241.5,270.4 C240.3,269.8 239.1,269.2 238.1,268.3 C236.3,266.7 231.9,259.8 239.7,260.8 C242.7,261.2 245.7,266.8 245.5,269.5 C246,270.6 245.6,271.4 244.2,271.9 C243.2,273.7 241.9,273.8 240.3,272.2 C239.3,271.7 237.4,270.8 236.9,269.8 C235.5,267.4 237.4,267.8 239.5,267.5 C241.7,267.2 243.8,266.9 246,267.4 C249.8,268.2 253.6,271.9 251.3,275.7 C248.6,280.2 242.4,276.9 243.7,272 C245.4,265.7 253.6,269.2 256,272.8 C257.5,275.1 258.2,277.9 258.8,280.6 C259.3,280 259.8,279.3 260.2,278.7 C256.4,279 251.7,279.5 248.3,277.2 C242.3,273.2 246.3,264.3 253.3,269 C259.5,273.2 261.1,283.7 261.2,290.5 C262,290.1 262.7,289.6 263.5,289.2 C257,286.5 256.2,277 263.8,275.1 C269.9,273.5 274.8,279.4 277.6,284.1 C279.5,287.3 281.3,291.4 280.4,295.1 C279.7,298 276.3,301.3 273.1,300.4 C270,299.5 269.2,295.5 269,292.8 C268.8,289.5 268.7,286.9 272.7,286.1 C281.7,284.2 291.6,293 291.2,301.9 C290.7,313.8 277.1,320 268,312.2 C267.8,313 267.6,313.9 267.3,314.7 C277.7,310.4 288.3,317.6 287.7,329 C288.3,328.5 289,328 289.6,327.6 C286.9,327 284.4,326.1 282.2,324.5 C280.9,323.6 279.3,322.4 278.6,321 C277.3,318.6 278,317.5 279.5,315.5 C283.4,310.4 288.9,305.9 293.5,301.4 C292.7,300.8 291.9,300.2 291.1,299.6 C291,299.8 290.8,300 290.7,300.2 C291.3,300 291.8,299.7 292.4,299.5 C288.4,298.9 288.7,286.6 288.9,284 C289.2,280.6 290.3,275.2 294.6,279.1 C296.6,280.9 298,283 299,285.5 C299.5,284.9 300,284.2 300.4,283.6 C296.7,283.6 292.6,283.1 289.4,281.1 C288.6,280.6 285.8,279 285.8,278.1 C288.8,275.4 290.2,275.3 290.1,277.7 C290.2,278.6 290.3,279.4 290.3,280.3 C290.8,279.8 291.3,279.3 291.8,278.8 C287.2,278.6 285.1,274.6 284.7,270.5 C284.6,268.8 284.2,264.8 285.4,263.6 C288,261 294.1,265.7 296.6,267.3 C298,268.2 299.8,266 298.4,264.9 C292.8,260.5 295.5,250.9 296.2,244.9 C297,237.2 297.9,229.5 298.7,221.8 C298.1,222.3 297.4,222.8 296.8,223.2 C303.5,225.3 303.5,233.3 297.4,236 C298.1,236.3 298.9,236.6 299.6,236.9 C300.3,237.5 301,238.2 301.7,238.8 C301.5,240.1 301.2,241.4 300.8,242.6 C300.3,244.3 299.5,246 298.8,247.6 C297.6,250.1 296.1,252.4 294.5,254.6 C295.2,254.4 295.9,254.2 296.6,254.1 C294,252.5 288.8,249.5 290.1,245.7 C289.8,243.6 290.7,243.1 292.8,244.3 C295,243.8 295.9,244.5 295.5,246.5 C295.8,247.8 295.2,249.5 294.9,250.7 C294.6,252.2 297.5,253 298,251.1 Z" id="Shape"></path>
                    <path d="M167,206 C168.9,206 168.9,203 167,203 C165.1,203 165.1,206 167,206 Z" id="Shape"></path>
                    <path d="M156.5,216 C158.4,216 158.4,213 156.5,213 C154.6,213 154.6,216 156.5,216 Z" id="Shape"></path>
                    <path d="M159.3,206.4 C157.6,205.8 155.6,204.6 154.8,202.9 C153.9,200.9 154.5,201.2 155.9,201 C156.9,200.8 160,201.3 160.7,202.1 C160.9,204 161.1,206 161.4,207.9 C160.5,208.4 159.5,209 158.6,209.5 C153.2,211.4 146.6,208.5 142,205.8 C139.3,204.2 130.2,197.8 133.2,194.5 C135.1,192.4 138.9,194.4 140.9,196 C143.3,197.9 144.6,200.3 145.2,203.3 C145.5,202.7 145.9,202.1 146.2,201.5 C139.1,202.7 133.2,193.5 132.1,187.4 C131.2,182.6 134.1,178.9 138.6,177.6 C139.6,177.3 143,176.4 144,177.2 C144.5,178.5 145.1,179.8 145.6,181.1 C143.1,183.3 140.8,183.5 138.7,181.7 C133,178.6 130.8,171 129.6,165.1 C129.5,164.6 128.7,161.5 128.9,161.3 C129.2,161.6 129.5,161.9 129.8,162.2 C131.3,163.1 131.6,164.4 130.6,165.8 C129.8,168.6 129.7,167.3 127.8,168.3 C127.2,168.6 126.8,168.9 126.3,169.4 C124.8,170.7 127,172.8 128.4,171.5 C130.6,169.6 133.2,170.7 134.4,167.5 C135.2,165.3 134.3,163.1 133,161.3 C131.3,159 127.2,155.8 126,160.3 C125.2,163.3 127.1,168.5 128.1,171.3 C129.2,174.5 130.6,177.7 132.7,180.4 C135.9,184.4 142,188.4 146.7,184.3 C149.9,181.5 149.8,176.6 145.8,174.7 C141.2,172.5 133.8,175.2 130.9,179.1 C123.8,188.5 135.9,206.3 147,204.4 C147.8,204.3 148.2,203.3 148,202.6 C147.1,197.5 143.6,193.2 138.6,191.4 C135.7,190.4 130,189.6 129,193.6 C127.9,197.8 133,202.9 135.8,205.3 C140.4,209.1 146.5,212.2 152.5,212.9 C157,213.4 163.1,212.5 165.2,207.8 C166.9,204.1 164.5,200.5 161.1,199 C158.7,198 152.7,196.5 151.3,199.6 C149.3,203.8 155.3,208.3 158.5,209.3 C160.3,209.9 161.1,207 159.3,206.4 Z" id="Shape"></path>
                    <path d="M133.9,189.1 C136.8,191.7 139.8,194.3 142.7,196.8 C144.1,198 145.4,199.2 146.8,200.4 C147.4,200.9 147.9,201.4 148.5,201.9 C150.2,203.1 150.2,204.8 148.6,207 C148.7,207.9 148.8,208.8 149,209.7 C152.9,208 156.9,208.8 160,211.6 C160.1,210.8 160.2,210 160.3,209.2 C158.6,210.4 151.9,201.9 151.8,201.1 C151.6,199.2 151.8,199.4 154,198.9 C156.3,198.4 158.6,198.4 161,198.5 C162.4,198.6 163.1,196.3 161.8,195.7 C157.2,193.5 153.7,190.4 151.1,186 C150.5,186.7 150,187.5 149.4,188.2 C154,189.5 160.9,191 163.5,195.2 C165.8,198.9 164.6,205.3 164.5,209.6 C165.4,209.2 166.2,208.9 167.1,208.5 C168.6,203.5 170.8,202.6 173.7,205.8 C174.5,206.7 175.1,207.8 175.6,208.9 C176.3,210.4 178.2,214.3 177,215.9 C177.6,215.8 178.2,215.7 178.8,215.7 C182.2,217.4 183,221.8 184.5,225 C186,228.4 187.5,231.8 189,235.2 C189.8,237 192.4,235.4 191.6,233.7 C189.5,228.9 187.3,224.1 185.2,219.3 C184.1,216.8 183.1,213.3 180.1,212.4 C176.2,211.3 173.5,216.4 177.3,218.3 C177.8,218.6 178.7,218.6 179.1,218.1 C183,213 177.3,202.7 171.6,201.1 C165.8,199.5 160.1,206.1 165,210.7 C166,211.6 167.5,210.9 167.6,209.6 C167.7,206 167.8,202.4 167.7,198.7 C167.7,196.4 167.8,194.3 166.2,192.5 C162.8,188.6 155,186.7 150.2,185.3 C148.9,184.9 147.9,186.4 148.5,187.5 C151.3,192.4 155.2,196 160.2,198.3 C160.5,197.4 160.7,196.4 161,195.5 C157.3,195.3 146.1,195 148.5,201.4 C149.8,204.9 157.4,215.1 161.8,211.8 C162.5,211.3 162.9,210.2 162.1,209.4 C157.9,205.5 152.7,204.8 147.5,207 C146.3,207.5 146.7,209.4 147.9,209.7 C152,210.8 154.8,206.7 153.3,202.9 C152.2,200.1 149.2,198.1 147.1,196.3 C143.5,193.1 139.9,190 136.2,186.8 C134.6,185.7 132.5,187.8 133.9,189.1 Z" id="Shape"></path>
                    <path d="M194.8,237.4 C203.3,231.5 210.9,253.8 197.8,256.9 C189.9,258.8 179.3,251 177.8,243.1 C176.5,236.3 183.8,231.5 188.9,237 C191.4,239.7 192.9,245.4 190.7,248.7 C186.6,254.9 180,246.8 177.5,243.6 C175.1,240.6 168.9,232.6 175,229.8 C182,226.5 192.1,232.9 191,240.6 C189.6,250 179.3,252.6 171.4,250.5 C163.7,248.4 156.9,243 151.9,237 C150.5,235.3 147.3,232.4 150.5,230.1 C151.6,229.3 154.2,229.4 155.4,229.5 C159.9,229.7 164,232.2 166.5,235.9 C166.9,235.1 167.4,234.4 167.8,233.6 C158.9,234.3 150.6,229.4 147.3,221 C147.1,221.6 146.8,222.1 146.6,222.7 C149,220.9 157.4,228.5 159.2,229.9 C162.9,232.7 166.4,235.7 169.8,238.8 C169.8,238.1 169.8,237.4 169.8,236.7 C165.8,240.3 154.9,226.5 152.8,223.8 C148.4,218.1 145.1,211.8 142.8,205.1 C142.5,205.7 142.1,206.3 141.8,206.9 C146.6,205.6 152.2,209.1 156.5,211 C160.1,212.6 163.7,214.3 167.3,216.1 C174.4,219.6 181.4,223.4 188.2,227.5 C188.3,226.6 188.4,225.7 188.6,224.8 C183.8,226.6 179.1,227 174.1,226.1 C172.2,225.7 171.4,228.6 173.3,229 C178.9,230.1 184.1,229.7 189.4,227.7 C190.6,227.3 190.9,225.7 189.8,225 C181.4,220 172.8,215.4 164,211.2 C157.6,208.2 148.5,202.1 141.2,204.1 C140.5,204.3 139.9,205.2 140.2,205.9 C143.4,215 148.3,223.4 154.9,230.6 C158.4,234.4 166.5,243.9 172.2,238.9 C172.8,238.4 172.8,237.3 172.2,236.8 C167.4,232.4 162.3,228.3 157,224.5 C154.1,222.4 149.1,217.5 145.4,220.3 C144.9,220.7 144.5,221.3 144.7,222 C148.4,231.6 157.8,237.7 168.1,236.8 C169.1,236.7 170.1,235.6 169.4,234.5 C166.8,230.8 163.2,228.1 158.7,227.1 C155.1,226.3 148.8,226.1 146.4,229.7 C144.1,233.1 147.9,236.8 150,239.3 C154.3,244.4 159.7,248.9 165.8,251.7 C175.2,256 187.7,255.8 192.9,245.4 C197.4,236.5 190.9,227.9 181.8,226.6 C152.5,222.3 184.3,266.4 193.6,250.3 C197.9,242.8 192.1,230.5 182.8,231.6 C178.8,232.1 176,235.1 175.2,238.9 C174.1,243.9 176.7,248.7 180,252.2 C186.7,259.4 201.7,265.1 207.2,253.3 C210.9,245.4 204.4,227.5 193.7,234.9 C191.7,235.9 193.2,238.5 194.8,237.4 Z" id="Shape"></path>
                    <path d="M228.5,258 C234.8,257.3 240.3,259.7 244.1,264.7 C244.8,264 245.5,263.3 246.2,262.6 C244.4,261 239,256.1 241.2,253.1 C243.8,249.6 251.9,252 254.6,253.6 C254.7,252.7 254.8,251.8 255,250.9 C253,247.7 253.7,247.1 257.3,248.9 C257.2,248.1 257.1,247.3 257,246.5 C255.4,244.9 255.2,243.9 256.4,243.6 C256.8,243.4 257.2,243.1 257.6,242.8 C257.9,242.3 258.2,241.8 258.4,241.2 C259.1,238.9 258.1,235.3 257.7,233 C256.7,233.3 255.8,233.5 254.8,233.8 C254.4,232.7 253.8,231.7 253.2,230.7 C252.3,229 249.7,230.5 250.6,232.2 C251.6,234.1 253.3,238.4 256.1,237.6 C258.3,237 258.3,234.8 257.7,233 C257.1,231.1 254.5,231.9 254.8,233.8 C255.3,236.5 256.4,239.2 254.1,241.2 C253.7,241.6 252.9,241.7 252.5,242.2 C251.4,243.5 250.7,245.1 251.1,246.9 C252,250.8 256.5,251 259,248.7 C259.7,248.1 259.6,246.7 258.7,246.3 C255.5,244.8 252,244.5 249.2,246.9 C248.8,247.3 248.7,247.9 248.8,248.4 C249.4,251.8 252,255 255.7,253.8 C256.9,253.4 257.2,251.7 256.1,251.1 C251.5,248.4 242.7,246.8 238.5,251.4 C234.7,255.5 241,262.2 244,264.8 C245.5,266.1 247.3,264.2 246.1,262.7 C241.8,257.1 235.3,254.4 228.3,255.1 C226.6,255.2 226.6,258.2 228.5,258 Z" id="Shape"></path>
                    <path d="M254.5,264.5 C256.4,264.5 256.4,261.5 254.5,261.5 C252.6,261.5 252.6,264.5 254.5,264.5 Z" id="Shape"></path>
                    <path d="M257.7,262.3 C257.2,262.7 256.1,262.2 255.7,261.9 C255,261.4 254.4,260.5 253.9,259.7 C252.8,258.1 252.1,256.4 251.5,254.6 C251.3,255.2 251,255.7 250.8,256.3 C252.7,255.2 255.3,256.2 256,258.3 C256.6,260.1 259.5,259.4 258.9,257.5 C257.7,253.5 252.9,251.6 249.3,253.7 C248.7,254 248.4,254.8 248.6,255.4 C249.6,258.9 252.8,266.3 257.6,265.2 C259.3,264.8 260.7,263 260,261.2 C259.2,259.3 257.1,258.9 255.6,260.1 C254.1,261.3 256.2,263.5 257.7,262.3 Z" id="Shape"></path>
                    <path d="M264.7,258.9 C265.4,258.7 268.8,258.1 268.4,258.4 C267.4,259.2 269.6,254.2 270.4,253.5 C271.7,252.3 273.5,251.5 275.2,251.1 C275.8,250.9 276.4,250.8 276.9,250.8 C278.3,250.9 278.4,250.5 277,249.6 C277.1,246 277.4,243.6 280.8,241.3 C283.5,239.5 287.5,239.1 290.6,238.7 C290.5,237.7 290.3,236.7 290.2,235.8 C290,235.3 289.7,234.8 289.5,234.3 C289.9,234.2 290.2,234.1 290.6,233.9 C291.1,233.5 291.9,233.3 292.5,233 C293.6,232.2 294.3,231.2 294.9,230 C296.5,226.2 295,221.8 295.4,217.8 C294.5,218.1 293.5,218.3 292.6,218.6 C293.5,219.9 294.3,221.2 295.2,222.4 C295.5,221.7 295.8,220.9 296.1,220.2 C292.7,220.7 289.5,220.8 286.1,220.7 C285.5,220.7 284.7,221.2 284.7,221.8 C284.3,224.2 286.1,225.4 285.6,227.8 C284.8,231.8 282.3,236.1 280.8,239.9 C280.1,241.7 283,242.5 283.7,240.7 C285.3,236.6 287.7,232.3 288.7,228 C288.9,227.1 289.1,226.4 288.9,225.4 C288.7,224.4 287.4,223.5 287.6,222.5 C287.1,222.9 286.6,223.2 286.2,223.6 C289.9,223.8 293.4,223.6 297,223 C297.9,222.9 298.4,221.5 297.9,220.8 C297,219.5 296.2,218.2 295.3,217 C294.4,215.7 292.7,216.3 292.5,217.8 C291.9,223.1 294.5,228.4 288.9,231.4 C287.3,232.2 285.7,232.4 285,234.3 C283.7,238.1 288.3,239.4 291.2,238.6 C292.8,238.2 292.5,235.5 290.8,235.7 C285.7,236.3 279.8,237.1 276.3,241.3 C273.8,244.4 272.8,249.7 275.7,253 C277.5,255 281.6,256.2 283,253 C284.8,248.8 279.4,247.5 276.5,247.8 C271.7,248.4 266.8,251.2 265.6,256.1 C264.7,259.8 266.2,264.8 270.6,265.4 C274.2,265.9 276.4,262.6 275.2,259.4 C273.5,254.6 268,255.2 264,256.1 C262,256.4 262.8,259.3 264.7,258.9 Z" id="Shape"></path>
                    <path d="M214.2,216.3 C214.7,214 215.6,211.9 216.9,210 C216.1,210.1 215.3,210.2 214.5,210.3 C214.5,210.1 214.6,209.8 214.6,209.6 C213.1,210.8 214.6,213.4 216.1,212.2 C217.5,211.1 217.7,209.5 216.6,208.2 C215.9,207.4 214.7,207.8 214.2,208.5 C212.8,210.6 211.7,213 211.2,215.5 C210.9,217.4 213.8,218.2 214.2,216.3 Z" id="Shape"></path>
                    <path d="M220.2,212.9 C221,209.7 223.1,207.2 224.3,204.2 C225.4,201.4 225.9,198.6 225.9,195.6 C225.9,193.7 222.9,193.7 222.9,195.6 C222.9,199.1 222.1,202.3 220.4,205.4 C219.2,207.6 218,209.7 217.3,212.1 C216.9,213.9 219.8,214.7 220.2,212.9 Z" id="Shape"></path>
                    <path d="M229.4,199.9 C229.6,198.5 230.5,197.4 231.9,197 C233.8,196.5 233,193.6 231.1,194.1 C228.8,194.7 226.9,196.7 226.5,199.1 C226.4,199.9 226.7,200.7 227.5,200.9 C228.3,201.1 229.3,200.7 229.4,199.9 Z" id="Shape"></path>
                    <path d="M240.9,194.9 C241.7,191.8 243,188.9 244.8,186.2 C245.9,184.6 243.3,183.1 242.2,184.7 C240.3,187.6 238.9,190.7 238,194.1 C237.5,196 240.4,196.7 240.9,194.9 Z" id="Shape"></path>
                    <path d="M272.5,186 C272.5,187 272.5,188 272.5,189 C272.5,190.9 275.5,190.9 275.5,189 C275.5,188 275.5,187 275.5,186 C275.5,184.1 272.5,184.1 272.5,186 Z" id="Shape"></path>
                    <path d="M272.3,189.5 C271.4,193.9 271.2,198.4 271.7,202.8 C271.8,203.6 272.3,204.3 273.2,204.3 C274.7,204.4 276.1,204.4 277.6,204.5 C279.5,204.6 279.5,201.6 277.6,201.5 C276.1,201.4 274.7,201.4 273.2,201.3 C273.7,201.8 274.2,202.3 274.7,202.8 C274.3,198.6 274.4,194.4 275.2,190.2 C275.5,188.5 272.6,187.7 272.3,189.5 Z" id="Shape"></path>
                    <path d="M277.3,197.1 C276.1,204.2 278.2,211.1 283.2,216.3 C284.5,217.7 286.7,215.6 285.3,214.2 C281.1,209.8 279.2,203.9 280.2,197.9 C280.5,196.1 277.6,195.2 277.3,197.1 Z" id="Shape"></path>
                    <path d="M181,103.8 C183.6,103 186.1,102.6 188.8,102.6 C190.6,102.6 190.7,100.2 189.2,99.7 C185.8,98.4 182.5,96.9 179.3,95.2 C177.6,94.3 176.1,96.9 177.8,97.8 C181.2,99.6 184.8,101.2 188.4,102.6 C188.5,101.6 188.7,100.6 188.8,99.7 C185.9,99.7 183,100.1 180.2,101 C178.4,101.4 179.1,104.3 181,103.8 Z" id="Shape"></path>
                    <path d="M190,96.5 C191.9,96.5 191.9,93.5 190,93.5 C188.1,93.5 188.1,96.5 190,96.5 Z" id="Shape"></path>
                    <path d="M186.5,98.5 C193.2,98.6 199.8,98.8 206.5,98.9 C214.2,99.1 220.2,100.4 227.1,104 C228.8,104.9 230.3,102.3 228.6,101.4 C222.6,98.3 217,96.2 210.2,96 C202.3,95.8 194.4,95.7 186.5,95.5 C184.6,95.4 184.6,98.4 186.5,98.5 Z" id="Shape"></path>
                    <path d="M271.5,105.8 C276.9,103.3 282.7,102.5 288.6,103.5 C290.3,103.8 291.2,101.8 289.8,100.8 C287.9,99.4 285.4,96.6 282.9,96.8 C282.2,96.8 281.9,96.9 281.3,97.3 C281.2,97.4 279.8,99 280.2,99 C278.3,99 278.3,102 280.2,102 C281.4,102 281.5,101.5 282.4,100.9 C283.6,100.1 283.2,100.2 284.9,101 C286.1,101.6 287.2,102.7 288.3,103.4 C288.7,102.5 289.1,101.6 289.5,100.7 C282.8,99.6 276.3,100.5 270.1,103.3 C268.2,104 269.7,106.6 271.5,105.8 Z" id="Shape"></path>
                    <path d="M208,21.5 C209.9,21.5 209.9,18.5 208,18.5 C206.1,18.5 206.1,21.5 208,21.5 Z" id="Shape"></path>
                    <path d="M209.2,20.2 C212.8,3.3 241,22.8 248.5,26.8 C254.8,30.1 261.3,33.3 266.4,38.5 C271.2,43.4 274.4,49.4 276.3,56 C277.1,55.5 278,55 278.8,54.5 C266.4,43.7 254.4,32.1 241.4,22.1 C236.2,18.1 230.8,15.6 224.3,14.8 C220.5,14.3 216.7,14.4 212.9,14.4 C209.2,14.4 201.5,15.4 200.4,10.5 C200,8.6 197.1,9.4 197.5,11.3 C198.5,16 203.3,17.2 207.6,17.4 C217,18 226.3,16.4 234.9,21.3 C242.5,25.7 249,32.5 255.6,38.2 C262.6,44.3 269.7,50.5 276.7,56.6 C277.8,57.5 279.6,56.7 279.2,55.1 C277.2,47.8 273.5,41.1 268,35.7 C261.1,28.9 251.9,25 243.5,20.6 C236.3,16.8 228.3,11 220,10.3 C213.9,9.8 207.6,13 206.3,19.3 C205.9,21.3 208.8,22.1 209.2,20.2 Z" id="Shape"></path>
                    <path d="M222.5,20.6 C236.1,25.8 249,32.5 261.1,40.6 C261.4,39.7 261.6,38.7 261.9,37.8 C232.7,35.4 208.3,17.4 185.7,0.3 C185.4,1.2 185.2,2.2 184.9,3.1 C201.7,2 218.5,6.9 234.3,12 C248,16.4 265.5,20.9 273.7,33.8 C274.3,33.1 274.8,32.3 275.4,31.6 C257.6,25 242.3,13 224.3,7.1 C204.5,0.6 183.8,4.6 164,8.8 C162.7,9.1 162.5,10.9 163.6,11.5 C166.8,13.2 169.8,13.5 173.2,12.4 C175,11.8 174.2,8.9 172.4,9.5 C169.9,10.3 167.4,10.2 165.1,8.9 C165,9.8 164.9,10.7 164.7,11.6 C185.3,7.2 206.2,3.4 226.5,11 C243.3,17.3 257.7,28.2 274.5,34.5 C275.7,35 276.9,33.4 276.2,32.3 C268,19.6 252.1,14.8 238.5,10.3 C221.4,4.6 203,-1 184.7,0.2 C183.1,0.3 182.8,2.1 183.9,3 C207.1,20.5 231.8,38.4 261.6,40.9 C263.2,41 263.5,38.9 262.4,38.1 C250,29.9 236.9,23.1 223,17.8 C221.5,17 220.7,19.9 222.5,20.6 Z" id="Shape"></path>
                    <path d="M143.5,14 C135.1,13.8 123.8,13.5 116.1,17.3 C110.1,20.2 108.3,27.8 108,33.9 C107.9,35.6 110.7,36 110.9,34.3 C111.2,31.8 111.6,29.4 111.9,26.9 C112.2,25 109.3,24.2 109,26.1 C108.7,28.6 108.3,31 108,33.5 C109,33.6 110,33.8 110.9,33.9 C111.1,30.2 111.8,26.4 113.8,23.3 C115.9,20 119.3,19.2 122.9,18.5 C129.7,17.2 136.5,16.8 143.4,17 C145.4,17 145.4,14 143.5,14 Z" id="Shape"></path>
                    <path d="M98.6,32.7 C96.4,36.3 95.6,40.2 95.4,44.4 C95.3,47.3 94.6,51.8 97.7,53.3 C99.4,54.2 100.9,51.6 99.2,50.7 C97.6,49.9 98.4,43.9 98.5,42.6 C98.8,39.5 99.5,36.8 101.1,34.2 C102.3,32.6 99.7,31.1 98.6,32.7 Z" id="Shape"></path>
                    <path d="M92.4,35.1 C83,51.8 74.5,68.9 66.8,86.4 C64.3,92.2 60.1,99 63,105.5 C65.7,111.5 72.3,114.6 75.7,120.2 C76.4,121.4 78.7,121 78.5,119.4 C76.2,98 82.5,76.6 96.1,60 C97.3,58.5 95.3,56.4 94,57.9 C74.5,79.1 60.7,105 54.1,133.1 C53.7,135 56.5,135.8 57,133.9 C63.5,106.3 77,80.9 96.2,60.1 C95.5,59.4 94.8,58.7 94.1,58 C80,75.2 73.2,97.3 75.6,119.5 C76.5,119.2 77.5,119 78.4,118.7 C75.6,114.1 71.1,111.3 67.7,107.2 C61.5,99.7 69.2,88.5 72.6,81.1 C79.5,66 87,51.2 95.1,36.7 C96,34.9 93.4,33.4 92.4,35.1 Z" id="Shape"></path>
                    <path d="M69.3,179.1 C65.1,163 61.6,146.6 60.1,130 C59.9,128.1 57.1,128 57.1,130 C57,145.9 56.2,161.9 56.8,177.8 C57,184.5 58.5,190.6 60.7,196.9 C63.5,205.3 65,213.1 63.6,222 C62.3,229.9 59.8,237.7 57.6,245.4 C56.6,248.9 55.8,252.6 54.6,256.1 C53.3,260 51.1,261.8 48.1,264.4 C42,269.7 43.9,280.4 52.6,281.6 C54.5,281.9 55.3,279 53.4,278.7 C50,278.2 47.1,275.2 47.3,271.6 C47.5,268.2 50.2,266.7 52.5,264.8 C56.6,261.3 57.6,256.8 59,251.8 C62.6,238.8 68.2,224.7 67.2,211 C66.7,205 64.7,199.4 62.8,193.7 C60.6,187 59.8,180.5 59.8,173.4 C59.8,158.9 60,144.5 60.1,130 C59.1,130 58.1,130 57.1,130 C58.7,146.9 62.2,163.5 66.4,179.9 C66.9,181.8 69.8,181 69.3,179.1 Z" id="Shape"></path>
                    <path d="M97.3,229.1 C94.6,234.8 93.3,240.8 93.5,247 C93.6,248.9 96.6,248.9 96.5,247 C96.3,241.2 97.4,235.8 99.9,230.6 C100.7,228.8 98.2,227.3 97.3,229.1 Z" id="Shape"></path>
                    <path d="M75.8,218.5 C74.8,226.3 74.2,234.1 74.1,242 C74,249.2 74.8,256.2 74.9,263.4 C75,269.2 71.7,273.6 74.2,279.4 C76.7,285.1 81.3,290.3 85.3,295 C89.3,299.7 93.9,303.9 97.8,308.7 C103.1,315.3 104.6,321.8 102.9,330.1 C101.1,339 98.5,349.9 107.2,356 C108.8,357.1 110.3,354.5 108.7,353.4 C98.2,345.9 107.9,330.4 106.5,320.2 C105.1,309.9 96.4,302.8 89.8,295.5 C85.4,290.6 80.6,285.2 77.5,279.3 C75.4,275.3 76.3,272.9 77.4,269 C78.1,266.3 77.8,263.5 77.6,260.7 C76.6,246.6 77,232.6 78.8,218.6 C79,216.6 76,216.7 75.8,218.5 Z" id="Shape"></path>
                    <path d="M0.5,356.1 C6.3,365.3 14.1,375.8 26.4,373.6 C37.2,371.6 46.4,363.6 51.3,354 C52.2,352.3 49.6,350.8 48.7,352.5 C44.6,360.6 37.6,367.2 28.8,369.9 C16.4,373.7 8.9,364 3,354.6 C2.1,353 -0.5,354.5 0.5,356.1 Z" id="Shape"></path>
                    <path d="M59,204.5 C60.9,204.5 60.9,201.5 59,201.5 C57.1,201.5 57.1,204.5 59,204.5 Z" id="Shape"></path>
                </g>
            </g>
        </g>
    </g>
</svg>